<svg width="11" height="15" viewBox="0 0 11 15" fill="none" xmlns="http://www.w3.org/2000/svg">
<path d="M5.5 0C5.49817 0 5.49633 0 5.49404 0C2.45987 0 0.000457764 2.51531 0.000457764 5.61844C0.000457764 7.065 0.534874 8.38406 1.4135 9.38016L1.40937 9.375L5.50046 15L9.59154 9.375C10.4656 8.38406 11 7.065 11 5.61844C11 2.51531 8.54058 0 5.50642 0C5.50412 0 5.50229 0 5.5 0H5.50046H5.5ZM5.5 7.5C4.48754 7.5 3.66667 6.66047 3.66667 5.625C3.66667 4.58953 4.48754 3.75 5.5 3.75C6.51246 3.75 7.33333 4.58953 7.33333 5.625C7.33333 6.66047 6.51246 7.5 5.5 7.5Z" fill="#7090AB"/>
</svg>
