<svg xmlns="http://www.w3.org/2000/svg" width="129.042" height="36.993" viewBox="0 0 129.042 36.993">
  <g id="Group_418" data-name="Group 418" transform="translate(-124.5 -638.473)">
    <g id="Group_416" data-name="Group 416" transform="translate(125 638.973)">
      <path id="Path_62" data-name="Path 62" d="M274.383-137.425a3.646,3.646,0,0,1-3.687,3.608H150.033a3.65,3.65,0,0,1-3.692-3.608V-166.2a3.655,3.655,0,0,1,3.692-3.613H270.695a3.65,3.65,0,0,1,3.687,3.613Z" transform="translate(-146.341 169.81)" fill="none" stroke="#262626" stroke-miterlimit="10" stroke-width="1"/>
      <g id="Group_62" data-name="Group 62" transform="translate(11.55 5.107)">
        <path id="Path_63" data-name="Path 63" d="M179.024-147.777a5.413,5.413,0,0,1,2.648-4.549,5.744,5.744,0,0,0-4.485-2.364c-1.886-.193-3.716,1.1-4.677,1.1-.98,0-2.46-1.082-4.056-1.05a5.993,5.993,0,0,0-5.025,2.989c-2.174,3.669-.552,9.059,1.529,12.025,1.042,1.452,2.259,3.074,3.852,3.017,1.559-.063,2.141-.969,4.022-.969,1.863,0,2.41.969,4.035.932,1.672-.027,2.726-1.459,3.731-2.924a11.882,11.882,0,0,0,1.706-3.388A5.263,5.263,0,0,1,179.024-147.777Z" transform="translate(-162.397 160.465)" fill="#262626"/>
        <path id="Path_64" data-name="Path 64" d="M179.815-158.886a5.247,5.247,0,0,0,1.252-3.824,5.623,5.623,0,0,0-3.6,1.818,5,5,0,0,0-1.285,3.682A4.65,4.65,0,0,0,179.815-158.886Z" transform="translate(-166.257 162.71)" fill="#262626"/>
      </g>
      <g id="Group_64" data-name="Group 64" transform="translate(39.957 16.128)">
        <g id="Group_63" data-name="Group 63">
          <path id="Path_65" data-name="Path 65" d="M208.932-139.881l-1.079-3.25q-.172-.5-.644-2.344h-.038q-.189.794-.606,2.344l-1.06,3.25Zm3.731,5.189h-2.178l-1.193-3.656h-4.147l-1.137,3.656h-2.121L206-147.137h2.538Z" transform="translate(-201.888 147.319)" fill="#262626"/>
          <path id="Path_66" data-name="Path 66" d="M226.016-137.934a3.625,3.625,0,0,0-.606-2.16,2.111,2.111,0,0,0-1.78-.886,2.159,2.159,0,0,0-1.372.489,2.26,2.26,0,0,0-.8,1.284,2.548,2.548,0,0,0-.095.608v1.5a2.361,2.361,0,0,0,.616,1.653,2.066,2.066,0,0,0,1.6.674,2.112,2.112,0,0,0,1.8-.868A3.752,3.752,0,0,0,226.016-137.934Zm2.083-.073a5.024,5.024,0,0,1-1.269,3.618,3.757,3.757,0,0,1-2.822,1.182,2.842,2.842,0,0,1-2.613-1.274h-.038v4.727h-2.045v-9.676q0-1.439-.076-2.954h1.8l.114,1.422h.039a3.428,3.428,0,0,1,3.105-1.606,3.449,3.449,0,0,1,2.717,1.255A4.864,4.864,0,0,1,228.1-138.006Z" transform="translate(-206.757 146.036)" fill="#262626"/>
          <path id="Path_67" data-name="Path 67" d="M240.732-137.934a3.625,3.625,0,0,0-.607-2.16,2.108,2.108,0,0,0-1.779-.886,2.164,2.164,0,0,0-1.374.489,2.262,2.262,0,0,0-.8,1.284,2.587,2.587,0,0,0-.095.608v1.5a2.369,2.369,0,0,0,.614,1.653,2.07,2.07,0,0,0,1.6.674,2.112,2.112,0,0,0,1.8-.868A3.752,3.752,0,0,0,240.732-137.934Zm2.083-.073a5.021,5.021,0,0,1-1.27,3.618,3.755,3.755,0,0,1-2.821,1.182,2.84,2.84,0,0,1-2.613-1.274h-.038v4.727h-2.045v-9.676q0-1.439-.076-2.954h1.8l.114,1.422h.038a3.427,3.427,0,0,1,3.105-1.606,3.456,3.456,0,0,1,2.718,1.255A4.877,4.877,0,0,1,242.815-138.006Z" transform="translate(-210.887 146.036)" fill="#262626"/>
          <path id="Path_68" data-name="Path 68" d="M259.636-138.253a3.278,3.278,0,0,1-1.134,2.585,5.108,5.108,0,0,1-3.477,1.09,6.211,6.211,0,0,1-3.308-.775l.474-1.662a5.712,5.712,0,0,0,2.956.795,2.849,2.849,0,0,0,1.8-.509,1.645,1.645,0,0,0,.642-1.36,1.713,1.713,0,0,0-.53-1.276,4.97,4.97,0,0,0-1.761-.962q-3.352-1.219-3.351-3.569a3.126,3.126,0,0,1,1.175-2.515,4.708,4.708,0,0,1,3.125-.98,6.33,6.33,0,0,1,2.9.591l-.511,1.626a5.125,5.125,0,0,0-2.443-.573,2.518,2.518,0,0,0-1.685.517A1.462,1.462,0,0,0,254-144.1a1.5,1.5,0,0,0,.586,1.218,6.689,6.689,0,0,0,1.857.961,6.318,6.318,0,0,1,2.423,1.513A3.112,3.112,0,0,1,259.636-138.253Z" transform="translate(-215.873 147.39)" fill="#262626"/>
          <path id="Path_69" data-name="Path 69" d="M269.938-141.687h-2.254v4.357q0,1.662,1.193,1.662a3.718,3.718,0,0,0,.909-.093l.057,1.514a4.748,4.748,0,0,1-1.59.22,2.485,2.485,0,0,1-1.894-.72,3.473,3.473,0,0,1-.682-2.419v-4.523h-1.343v-1.5h1.343v-1.643l2.008-.591v2.234h2.254Z" transform="translate(-219.414 146.837)" fill="#262626"/>
        </g>
        <path id="Path_70" data-name="Path 70" d="M280.623-137.905a3.956,3.956,0,0,0-.549-2.129,2.027,2.027,0,0,0-1.836-1.073,2.06,2.06,0,0,0-1.875,1.073,4.031,4.031,0,0,0-.549,2.167,3.95,3.95,0,0,0,.549,2.129,2.07,2.07,0,0,0,1.857,1.073,2.054,2.054,0,0,0,1.836-1.092A3.972,3.972,0,0,0,280.623-137.905Zm2.121-.064a4.845,4.845,0,0,1-1.212,3.4,4.381,4.381,0,0,1-3.372,1.367,4.167,4.167,0,0,1-3.228-1.311,4.7,4.7,0,0,1-1.2-3.3,4.8,4.8,0,0,1,1.24-3.415,4.347,4.347,0,0,1,3.342-1.33,4.256,4.256,0,0,1,3.257,1.311A4.647,4.647,0,0,1,282.745-137.969Z" transform="translate(-222.051 146.036)" fill="#262626"/>
        <path id="Path_71" data-name="Path 71" d="M293.581-140.63a3.685,3.685,0,0,0-.645-.055,1.949,1.949,0,0,0-1.667.795,2.934,2.934,0,0,0-.511,1.772v4.709h-2.044l.019-6.148q0-1.551-.077-2.825h1.781l.075,1.717h.057a3.07,3.07,0,0,1,1.022-1.421,2.513,2.513,0,0,1,1.478-.481,3.416,3.416,0,0,1,.511.036Z" transform="translate(-226.241 146.036)" fill="#262626"/>
        <path id="Path_72" data-name="Path 72" d="M303.074-138.845a2.659,2.659,0,0,0-.4-1.533,1.8,1.8,0,0,0-1.629-.831,1.955,1.955,0,0,0-1.628.812,2.934,2.934,0,0,0-.6,1.551h4.259Zm1.95.517a4.6,4.6,0,0,1-.075.9h-6.134a2.573,2.573,0,0,0,.89,2.032,3.091,3.091,0,0,0,2.006.627,6.939,6.939,0,0,0,2.482-.424l.32,1.384a7.842,7.842,0,0,1-3.085.555,4.534,4.534,0,0,1-3.363-1.228,4.471,4.471,0,0,1-1.221-3.3,5.06,5.06,0,0,1,1.137-3.379,3.96,3.96,0,0,1,3.218-1.439,3.459,3.459,0,0,1,3.013,1.439A4.769,4.769,0,0,1,305.025-138.327Z" transform="translate(-228.539 146.043)" fill="#262626"/>
      </g>
      <g id="Group_65" data-name="Group 65" transform="translate(41.171 5.425)">
        <path id="Path_73" data-name="Path 73" d="M207.67-158.907a2.2,2.2,0,0,0-.581-1.642,2.328,2.328,0,0,0-1.7-.571,4.35,4.35,0,0,0-.809.063v4.572a5.435,5.435,0,0,0,.679.027,2.412,2.412,0,0,0,1.781-.626A2.469,2.469,0,0,0,207.67-158.907Zm1.06-.027a3.034,3.034,0,0,1-1.015,2.486,4.109,4.109,0,0,1-2.669.77,12.613,12.613,0,0,1-1.47-.073v-6.014a11.11,11.11,0,0,1,1.731-.127,3.8,3.8,0,0,1,2.485.7A2.79,2.79,0,0,1,208.73-158.934Z" transform="translate(-203.576 162.163)" fill="#262626"/>
        <path id="Path_74" data-name="Path 74" d="M215.783-157.292a1.957,1.957,0,0,0-.27-1.047,1,1,0,0,0-.9-.527,1.013,1.013,0,0,0-.922.527,1.984,1.984,0,0,0-.269,1.064,1.957,1.957,0,0,0,.269,1.047,1.019,1.019,0,0,0,.912.527,1.007,1.007,0,0,0,.9-.537A1.947,1.947,0,0,0,215.783-157.292Zm1.042-.032a2.381,2.381,0,0,1-.6,1.669,2.152,2.152,0,0,1-1.657.671,2.046,2.046,0,0,1-1.586-.644,2.312,2.312,0,0,1-.59-1.624,2.356,2.356,0,0,1,.609-1.677,2.137,2.137,0,0,1,1.642-.653,2.1,2.1,0,0,1,1.6.644A2.293,2.293,0,0,1,216.825-157.324Z" transform="translate(-206.052 161.515)" fill="#262626"/>
        <path id="Path_75" data-name="Path 75" d="M226.472-159.457l-1.415,4.408h-.921l-.586-1.914a14.17,14.17,0,0,1-.363-1.424h-.018a10.257,10.257,0,0,1-.364,1.424l-.622,1.914h-.932l-1.33-4.408h1.033l.511,2.1q.186.743.306,1.415h.019q.112-.552.373-1.406l.642-2.1h.819l.615,2.059q.222.753.363,1.452h.027a13.67,13.67,0,0,1,.307-1.452l.549-2.059h.987Z" transform="translate(-208.163 161.48)" fill="#262626"/>
        <path id="Path_76" data-name="Path 76" d="M234.726-155.085H233.72v-2.525q0-1.166-.911-1.167a.917.917,0,0,0-.727.321,1.123,1.123,0,0,0-.279.755v2.615h-1v-3.148q0-.58-.037-1.261h.883l.047.689h.027a1.434,1.434,0,0,1,.521-.532,1.732,1.732,0,0,1,.911-.248,1.462,1.462,0,0,1,1.052.4,1.912,1.912,0,0,1,.521,1.46Z" transform="translate(-211.206 161.516)" fill="#262626"/>
        <rect id="Rectangle_11" data-name="Rectangle 11" width="1.004" height="6.431" transform="translate(25.287 0)" fill="#262626"/>
        <path id="Path_77" data-name="Path 77" d="M245.58-157.292a1.95,1.95,0,0,0-.27-1.047.994.994,0,0,0-.9-.527,1.01,1.01,0,0,0-.921.527,1.978,1.978,0,0,0-.27,1.064,1.956,1.956,0,0,0,.27,1.047,1.019,1.019,0,0,0,.912.527,1,1,0,0,0,.9-.537A1.934,1.934,0,0,0,245.58-157.292Zm1.044-.032a2.381,2.381,0,0,1-.6,1.669,2.154,2.154,0,0,1-1.657.671,2.041,2.041,0,0,1-1.586-.644,2.311,2.311,0,0,1-.59-1.624,2.358,2.358,0,0,1,.609-1.677,2.14,2.14,0,0,1,1.642-.653,2.094,2.094,0,0,1,1.6.644A2.29,2.29,0,0,1,246.624-157.324Z" transform="translate(-214.415 161.515)" fill="#262626"/>
        <path id="Path_78" data-name="Path 78" d="M252.623-156.6v-.68q-1.664-.028-1.663.888a.655.655,0,0,0,.193.517.713.713,0,0,0,.491.172,1.034,1.034,0,0,0,.615-.2.833.833,0,0,0,.348-.521A.8.8,0,0,0,252.623-156.6Zm1.043,1.515h-.9l-.075-.508h-.028a1.562,1.562,0,0,1-1.321.608,1.381,1.381,0,0,1-1.032-.4,1.234,1.234,0,0,1-.354-.9,1.362,1.362,0,0,1,.693-1.233,3.671,3.671,0,0,1,1.95-.417v-.083q0-.871-.939-.87a2.141,2.141,0,0,0-1.179.327l-.2-.644a2.959,2.959,0,0,1,1.551-.381,1.591,1.591,0,0,1,1.775,1.824v1.624A6.724,6.724,0,0,0,253.666-155.084Z" transform="translate(-216.593 161.515)" fill="#262626"/>
        <path id="Path_79" data-name="Path 79" d="M260.328-157.7v-.735a1.423,1.423,0,0,0-.027-.309,1.11,1.11,0,0,0-.364-.593,1,1,0,0,0-.672-.24,1.04,1.04,0,0,0-.885.435,1.837,1.837,0,0,0-.322,1.116,1.71,1.71,0,0,0,.309,1.062,1.041,1.041,0,0,0,.878.434.977.977,0,0,0,.794-.363A1.191,1.191,0,0,0,260.328-157.7Zm1.042,1.859h-.892l-.047-.708H260.4a1.508,1.508,0,0,1-1.452.808,1.717,1.717,0,0,1-1.358-.625,2.4,2.4,0,0,1-.54-1.624,2.516,2.516,0,0,1,.586-1.733,1.822,1.822,0,0,1,1.4-.617,1.367,1.367,0,0,1,1.274.6h.019v-2.531h1.006v5.243Q261.335-156.382,261.37-155.838Z" transform="translate(-218.585 162.269)" fill="#262626"/>
      </g>
      <g id="Group_66" data-name="Group 66" transform="translate(88.124 7.355)">
        <path id="Path_80" data-name="Path 80" d="M272.236-157.292a1.95,1.95,0,0,0-.27-1.047,1,1,0,0,0-.9-.527,1.015,1.015,0,0,0-.922.527,1.984,1.984,0,0,0-.269,1.064,1.957,1.957,0,0,0,.269,1.047,1.019,1.019,0,0,0,.912.527,1.007,1.007,0,0,0,.9-.537A1.953,1.953,0,0,0,272.236-157.292Zm1.042-.032a2.381,2.381,0,0,1-.6,1.669,2.151,2.151,0,0,1-1.657.671,2.048,2.048,0,0,1-1.586-.644,2.312,2.312,0,0,1-.59-1.624,2.356,2.356,0,0,1,.609-1.677,2.139,2.139,0,0,1,1.643-.653,2.092,2.092,0,0,1,1.6.644A2.293,2.293,0,0,1,273.277-157.324Z" transform="translate(-268.849 159.585)" fill="#262626"/>
        <path id="Path_81" data-name="Path 81" d="M280.972-155.085h-1v-2.525c0-.778-.3-1.167-.912-1.167a.914.914,0,0,0-.725.321,1.119,1.119,0,0,0-.279.755v2.615h-1.006v-3.148q0-.58-.036-1.261h.883l.047.689h.028a1.446,1.446,0,0,1,.521-.532,1.735,1.735,0,0,1,.912-.248,1.461,1.461,0,0,1,1.051.4,1.907,1.907,0,0,1,.521,1.46Z" transform="translate(-271.14 159.586)" fill="#262626"/>
      </g>
      <g id="Group_67" data-name="Group 67" transform="translate(101.968 5.425)">
        <path id="Path_82" data-name="Path 82" d="M290.848-159.151h-1.106v2.141c0,.544.2.816.586.816a1.81,1.81,0,0,0,.448-.046l.026.743a2.3,2.3,0,0,1-.78.109,1.216,1.216,0,0,1-.929-.353,1.7,1.7,0,0,1-.336-1.188v-2.223h-.661v-.734h.661v-.808l.985-.29v1.1h1.107v.735Z" transform="translate(-288.094 161.908)" fill="#262626"/>
        <path id="Path_83" data-name="Path 83" d="M297.788-155.838h-1.006v-2.506q0-1.185-.91-1.185a.958.958,0,0,0-.96.687,1.214,1.214,0,0,0-.047.353v2.651h-1v-6.43h1v2.657h.019a1.527,1.527,0,0,1,1.358-.725,1.422,1.422,0,0,1,1.034.4,1.979,1.979,0,0,1,.511,1.478Z" transform="translate(-289.713 162.269)" fill="#262626"/>
        <path id="Path_84" data-name="Path 84" d="M304.423-157.753a1.287,1.287,0,0,0-.195-.752.883.883,0,0,0-.8-.409.962.962,0,0,0-.8.4,1.459,1.459,0,0,0-.3.762Zm.959.253a2.272,2.272,0,0,1-.037.445H302.33a1.269,1.269,0,0,0,.436,1,1.523,1.523,0,0,0,.987.309,3.4,3.4,0,0,0,1.219-.209l.158.68a3.862,3.862,0,0,1-1.518.273,2.221,2.221,0,0,1-1.65-.6,2.188,2.188,0,0,1-.6-1.618,2.486,2.486,0,0,1,.558-1.66,1.944,1.944,0,0,1,1.581-.706,1.7,1.7,0,0,1,1.478.706A2.31,2.31,0,0,1,305.382-157.5Z" transform="translate(-291.818 161.518)" fill="#262626"/>
      </g>
    </g>
  </g>
</svg>
