<svg xmlns="http://www.w3.org/2000/svg" width="275.994" height="124.064" viewBox="0 0 275.994 124.064">
  <path id="Kayan_Assets" data-name="Kayan Assets" d="M354.921,306.727c-20.7,2.294-7.01-1.286-6.578-1.4,6.718-2,53.428-13.723,94.095-9.625s56.488,13.4,68.573,26.016c6.407,6.661,9.738,14.246,9.8,21.906a36.863,36.863,0,0,1-1.848,10.915,48.764,48.764,0,0,1-4.5,10.989c-8.938,15.281-28.665,27.047-52.58,34.152-26.566,7.88-56.647,9.879-85.925,8.473-15.6-.777-31.129-2.406-46.293-4.661a287.081,287.081,0,0,1-34.209-6.92c-21.267-5.808-41.051-15.206-48.017-29.12-4.131-8.214-2.775-16.427-.06-24.679,2.648-8.029,8.382-15.467,16.4-22.053,16.4-13.395,40.8-23.2,65.89-29.861,26.506-7.029,66.466-7.354,62.505-5.143-2.38,1.329-21.625,2.052-42.015,5.143a240.673,240.673,0,0,0-36.331,8.844c-23.115,7.547-45.242,17.982-58.247,31.969a45.706,45.706,0,0,0-7.766,11.174c-.372.813-.68,1.665-1.051,2.516-.8,1.811.372-1.777.124-.518-.184,1.109-.492,2.219-.616,3.33a23.116,23.116,0,0,0,0,5.81c.8,7.437,5.115,14.54,12.513,20.534,13.561,11.027,35.26,17.466,56.463,21.609,12.513,2.442,25.455,4.145,38.4,5.513a384.809,384.809,0,0,0,46.725,2.221c26.69-.444,53.5-4.44,76-13.321,10.726-4.255,20.28-9.583,27.738-15.873a57.458,57.458,0,0,0,9.43-10.1,47.431,47.431,0,0,0,3.455-5.551,27.677,27.677,0,0,0,1.292-2.775c.187-.48.372-.962.556-1.442.68-1.7-.368,1.85-.06.11,1.292-7.585.552-14.985-4.007-22.2-4.071-6.436-10.665-12.246-18.8-17.056-17.444-10.4-41.175-16.207-65.585-17.207C401.475,297.3,375.616,304.432,354.921,306.727Z" transform="translate(-244.818 -284.506)" fill="#41a6f7"/>
</svg>
