<?xml version="1.0" encoding="utf-8"?>
<svg viewBox="168.608 168.083 186.859 58.62" xmlns="http://www.w3.org/2000/svg">
  <defs>
    <clipPath clipPathUnits="userSpaceOnUse" id="clipPath26">
      <path d="m 205.098,176.105 -0.743,0.711 c -2.91,3.079 -4.628,7.86 -4.628,14.051 v -1.457 0 221.16 c 0,0.02 0,0.035 0,0.051 0,-0.019 0,-0.035 0,-0.055 v -1.461 c 0,6.704 2.003,11.754 5.359,14.782 L 328.984,299.992 205.098,176.105 m -5.371,234.528 c 0,0.551 0.015,1.086 0.043,1.613 -0.028,-0.523 -0.043,-1.062 -0.043,-1.613 m 0.043,1.637 c 0,0.007 0,0.015 0.003,0.023 -0.003,-0.008 -0.003,-0.016 -0.003,-0.023 m 0.003,0.07 c 0,0.004 0,0.008 0,0.012 0,-0.004 0,-0.008 0,-0.012" id="path24"/>
    </clipPath>
    <linearGradient x1="0" y1="0" x2="1" y2="0" gradientUnits="userSpaceOnUse" gradientTransform="matrix(-167.825,-167.825,167.825,-167.825,317.998,412.903)" spreadMethod="pad" id="linearGradient40">
      <stop style="stop-opacity:1;stop-color:#00a0ff" offset="0" id="stop28"/>
      <stop style="stop-opacity:1;stop-color:#00a1ff" offset="0.0066" id="stop30"/>
      <stop style="stop-opacity:1;stop-color:#00beff" offset="0.2601" id="stop32"/>
      <stop style="stop-opacity:1;stop-color:#00d2ff" offset="0.5122" id="stop34"/>
      <stop style="stop-opacity:1;stop-color:#00dfff" offset="0.7604" id="stop36"/>
      <stop style="stop-opacity:1;stop-color:#00e3ff" offset="1" id="stop38"/>
    </linearGradient>
    <clipPath clipPathUnits="userSpaceOnUse" id="clipPath50">
      <path d="m 370.277,257.215 v 0 l 0.942,0.535 48.929,27.801 c 4.665,2.652 7.774,5.867 9.325,9.269 -1.547,-3.402 -4.657,-6.621 -9.325,-9.273 l -48.929,-27.801 -0.942,-0.531 m 0.012,1.465 -41.305,41.312 41.301,41.305 49.863,-28.328 c 6.332,-3.598 9.887,-8.235 10.481,-12.973 0,-0.004 0,-0.012 0,-0.019 -0.594,-4.727 -4.149,-9.368 -10.481,-12.965 L 370.289,258.68" id="path48"/>
    </clipPath>
    <linearGradient x1="0" y1="0" x2="1" y2="0" gradientUnits="userSpaceOnUse" gradientTransform="matrix(-241.97,0,0,-241.97,438.344,299.986)" spreadMethod="pad" id="linearGradient60">
      <stop style="stop-opacity:1;stop-color:#ffe000" offset="0" id="stop52"/>
      <stop style="stop-opacity:1;stop-color:#ffbd00" offset="0.4087" id="stop54"/>
      <stop style="stop-opacity:1;stop-color:#ffa500" offset="0.7754" id="stop56"/>
      <stop style="stop-opacity:1;stop-color:#ff9c00" offset="1" id="stop58"/>
    </linearGradient>
    <clipPath clipPathUnits="userSpaceOnUse" id="clipPath70">
      <path d="m 213.93,171.387 c -3.461,0 -6.481,1.125 -8.836,3.25 l 0.004,0.004 c 2.355,-2.125 5.379,-3.254 8.84,-3.254 0.3,0 0.605,0.008 0.914,0.023 -0.313,-0.015 -0.622,-0.023 -0.922,-0.023 m 0.004,1.465 c -3.461,-0.004 -6.481,1.125 -8.836,3.25 v 0 0.003 l 123.886,123.887 41.305,-41.312 v 0 L 225.137,176.207 c -4.016,-2.277 -7.821,-3.355 -11.203,-3.355 m -8.871,1.812 c -0.219,0.199 -0.434,0.41 -0.645,0.629 l 0.645,-0.629" id="path68"/>
    </clipPath>
    <linearGradient x1="0" y1="0" x2="1" y2="0" gradientUnits="userSpaceOnUse" gradientTransform="matrix(-227.583,-227.583,227.583,-227.583,348.27,277.039)" spreadMethod="pad" id="linearGradient76">
      <stop style="stop-opacity:1;stop-color:#ff3a44" offset="0" id="stop72"/>
      <stop style="stop-opacity:1;stop-color:#c31162" offset="1" id="stop74"/>
    </linearGradient>
    <clipPath clipPathUnits="userSpaceOnUse" id="clipPath86">
      <path d="m 328.984,299.992 v 0 L 205.086,423.887 c 2.355,2.121 5.371,3.246 8.828,3.246 3.391,0 7.199,-1.082 11.223,-3.363 l 145.148,-82.473 -41.301,-41.305 m 42.235,42.238 -146.082,83 c -4.024,2.282 -7.832,3.364 -11.223,3.364 -0.016,0 -0.027,0 -0.043,0 0.02,0 0.035,0 0.059,0 3.383,0 7.187,-1.078 11.207,-3.36 L 371.219,342.23 M 213.84,428.594 v 0 0" id="path84"/>
    </clipPath>
    <linearGradient x1="0" y1="0" x2="1" y2="0" gradientUnits="userSpaceOnUse" gradientTransform="matrix(101.625,-101.625,101.625,101.625,172.973,498.238)" spreadMethod="pad" id="linearGradient98">
      <stop style="stop-opacity:1;stop-color:#32a071" offset="0" id="stop88"/>
      <stop style="stop-opacity:1;stop-color:#2da771" offset="0.0685" id="stop90"/>
      <stop style="stop-opacity:1;stop-color:#15cf74" offset="0.4762" id="stop92"/>
      <stop style="stop-opacity:1;stop-color:#06e775" offset="0.8009" id="stop94"/>
      <stop style="stop-opacity:1;stop-color:#00f076" offset="1" id="stop96"/>
    </linearGradient>
    <clipPath clipPathUnits="userSpaceOnUse" id="clipPath110">
      <path d="m 370.277,257.215 v 0 l 0.942,0.535 -0.942,-0.535" id="path108"/>
    </clipPath>
    <linearGradient x1="0" y1="0" x2="1" y2="0" gradientUnits="userSpaceOnUse" gradientTransform="matrix(-241.97,0,0,-241.97,438.344,299.986)" spreadMethod="pad" id="linearGradient120">
      <stop style="stop-opacity:1;stop-color:#ccb300" offset="0" id="stop112"/>
      <stop style="stop-opacity:1;stop-color:#cc9700" offset="0.4087" id="stop114"/>
      <stop style="stop-opacity:1;stop-color:#cc8400" offset="0.7754" id="stop116"/>
      <stop style="stop-opacity:1;stop-color:#cc7d00" offset="1" id="stop118"/>
    </linearGradient>
    <clipPath clipPathUnits="userSpaceOnUse" id="clipPath130">
      <path d="m 213.938,171.387 c -3.461,0 -6.485,1.129 -8.84,3.254 l -0.004,-0.004 c -0.008,0.008 -0.02,0.019 -0.031,0.027 l -0.645,0.629 c -0.02,0.02 -0.039,0.043 -0.063,0.066 l 0.743,0.743 c 2.355,-2.125 5.375,-3.254 8.836,-3.25 3.382,0 7.187,1.078 11.203,3.355 l 145.152,82.473 0.93,-0.93 -0.942,-0.535 -145.14,-82.469 c -3.66,-2.074 -7.141,-3.156 -10.285,-3.336 -0.309,-0.015 -0.614,-0.023 -0.914,-0.023" id="path128"/>
    </clipPath>
    <linearGradient x1="0" y1="0" x2="1" y2="0" gradientUnits="userSpaceOnUse" gradientTransform="matrix(-227.583,-227.583,227.583,-227.583,348.27,277.039)" spreadMethod="pad" id="linearGradient136">
      <stop style="stop-opacity:1;stop-color:#cc2e36" offset="0" id="stop132"/>
      <stop style="stop-opacity:1;stop-color:#9c0e4e" offset="1" id="stop134"/>
    </linearGradient>
    <clipPath clipPathUnits="userSpaceOnUse" id="clipPath148">
      <path d="m 204.355,175.359 v 0 c -2.91,3.079 -4.628,7.856 -4.628,14.051 v 1.457 c 0,-6.191 1.718,-10.972 4.628,-14.051 l 0.743,-0.711 -0.743,-0.746" id="path146"/>
    </clipPath>
    <linearGradient x1="0" y1="0" x2="1" y2="0" gradientUnits="userSpaceOnUse" gradientTransform="matrix(-167.825,-167.825,167.825,-167.825,317.998,412.903)" spreadMethod="pad" id="linearGradient162">
      <stop style="stop-opacity:1;stop-color:#008de0" offset="0" id="stop150"/>
      <stop style="stop-opacity:1;stop-color:#008de0" offset="0.0066" id="stop152"/>
      <stop style="stop-opacity:1;stop-color:#00a7e0" offset="0.2601" id="stop154"/>
      <stop style="stop-opacity:1;stop-color:#00b8e0" offset="0.5122" id="stop156"/>
      <stop style="stop-opacity:1;stop-color:#00c4e0" offset="0.7604" id="stop158"/>
      <stop style="stop-opacity:1;stop-color:#00c7e0" offset="1" id="stop160"/>
    </linearGradient>
    <clipPath clipPathUnits="userSpaceOnUse" id="clipPath172">
      <path d="m 204.355,175.359 v 0 0 l 0.743,0.746 v -0.003 l -0.743,-0.743" id="path170"/>
    </clipPath>
    <linearGradient x1="0" y1="0" x2="1" y2="0" gradientUnits="userSpaceOnUse" gradientTransform="matrix(-227.583,-227.583,227.583,-227.583,348.27,277.039)" spreadMethod="pad" id="linearGradient178">
      <stop style="stop-opacity:1;stop-color:#e0333c" offset="0" id="stop174"/>
      <stop style="stop-opacity:1;stop-color:#ab0f56" offset="1" id="stop176"/>
    </linearGradient>
    <clipPath clipPathUnits="userSpaceOnUse" id="clipPath190">
      <path d="m 371.219,257.75 v 0 l -0.93,0.93 49.859,28.332 c 6.332,3.597 9.887,8.238 10.481,12.965 0,-1.735 -0.387,-3.469 -1.156,-5.157 -1.551,-3.402 -4.66,-6.617 -9.325,-9.269 L 371.219,257.75" id="path188"/>
    </clipPath>
    <linearGradient x1="0" y1="0" x2="1" y2="0" gradientUnits="userSpaceOnUse" gradientTransform="matrix(-241.97,0,0,-241.97,438.344,299.986)" spreadMethod="pad" id="linearGradient200">
      <stop style="stop-opacity:1;stop-color:#e0c500" offset="0" id="stop192"/>
      <stop style="stop-opacity:1;stop-color:#e0a600" offset="0.4087" id="stop194"/>
      <stop style="stop-opacity:1;stop-color:#e09100" offset="0.7754" id="stop196"/>
      <stop style="stop-opacity:1;stop-color:#e08900" offset="1" id="stop198"/>
    </linearGradient>
    <clipPath clipPathUnits="userSpaceOnUse" id="clipPath212">
      <path d="m 430.629,299.996 c -0.594,4.738 -4.149,9.375 -10.481,12.973 l -49.863,28.328 0.93,0.93 h 0.004 l 48.929,-27.801 c 6.981,-3.969 10.477,-9.199 10.481,-14.43" id="path210"/>
    </clipPath>
    <linearGradient x1="0" y1="0" x2="1" y2="0" gradientUnits="userSpaceOnUse" gradientTransform="matrix(-241.97,0,0,-241.97,438.344,299.986)" spreadMethod="pad" id="linearGradient222">
      <stop style="stop-opacity:1;stop-color:#ffe840" offset="0" id="stop214"/>
      <stop style="stop-opacity:1;stop-color:#ffce40" offset="0.4087" id="stop216"/>
      <stop style="stop-opacity:1;stop-color:#ffbc40" offset="0.7754" id="stop218"/>
      <stop style="stop-opacity:1;stop-color:#ffb540" offset="1" id="stop220"/>
    </linearGradient>
    <clipPath clipPathUnits="userSpaceOnUse" id="clipPath234">
      <path d="m 199.727,409.105 v 1.461 c 0,0.02 0,0.036 0,0.055 0,0.004 0,0.008 0,0.012 0,0.551 0.015,1.09 0.043,1.613 0,0.008 0,0.016 0,0.024 0,0.007 0,0.015 0.003,0.023 0,0.016 0,0.031 0,0.047 0,0.004 0,0.008 0,0.012 0.301,5.332 1.957,9.492 4.582,12.269 v 0 0 l 0.731,-0.734 c -3.356,-3.028 -5.359,-8.078 -5.359,-14.782 m 5.339,16.215 0.028,0.028 c -0.008,-0.012 -0.02,-0.02 -0.028,-0.028" id="path232"/>
    </clipPath>
    <linearGradient x1="0" y1="0" x2="1" y2="0" gradientUnits="userSpaceOnUse" gradientTransform="matrix(-167.825,-167.825,167.825,-167.825,317.998,412.903)" spreadMethod="pad" id="linearGradient248">
      <stop style="stop-opacity:1;stop-color:#40b8ff" offset="0" id="stop236"/>
      <stop style="stop-opacity:1;stop-color:#40b9ff" offset="0.0066" id="stop238"/>
      <stop style="stop-opacity:1;stop-color:#40ceff" offset="0.2601" id="stop240"/>
      <stop style="stop-opacity:1;stop-color:#40ddff" offset="0.5122" id="stop242"/>
      <stop style="stop-opacity:1;stop-color:#40e7ff" offset="0.7604" id="stop244"/>
      <stop style="stop-opacity:1;stop-color:#40eaff" offset="1" id="stop246"/>
    </linearGradient>
    <clipPath clipPathUnits="userSpaceOnUse" id="clipPath260">
      <path d="M 370.285,341.297 225.137,423.77 c -4.024,2.281 -7.832,3.363 -11.223,3.363 -3.457,0 -6.473,-1.125 -8.828,-3.246 l -0.731,0.734 v 0 c 0.231,0.242 0.465,0.477 0.711,0.699 0.008,0.008 0.02,0.016 0.028,0.024 2.336,2.105 5.32,3.23 8.746,3.25 v 0 c 0.008,0 0.019,0 0.031,0 0.016,0 0.027,0 0.043,0 3.391,0 7.199,-1.082 11.223,-3.364 l 146.082,-83 -0.004,-0.003 -0.93,-0.93" id="path258"/>
    </clipPath>
    <linearGradient x1="0" y1="0" x2="1" y2="0" gradientUnits="userSpaceOnUse" gradientTransform="matrix(101.625,-101.625,101.625,101.625,172.973,498.238)" spreadMethod="pad" id="linearGradient272">
      <stop style="stop-opacity:1;stop-color:#65b895" offset="0" id="stop262"/>
      <stop style="stop-opacity:1;stop-color:#62bd95" offset="0.0685" id="stop264"/>
      <stop style="stop-opacity:1;stop-color:#50db97" offset="0.4762" id="stop266"/>
      <stop style="stop-opacity:1;stop-color:#44ed98" offset="0.8009" id="stop268"/>
      <stop style="stop-opacity:1;stop-color:#40f498" offset="1" id="stop270"/>
    </linearGradient>
  </defs>
  <g id="g8" transform="matrix(1.333333, 0, 0, -1.333333, 158.117981, 236.954315)">
    <g id="g10" transform="scale(0.1)">
      <path d="M 1400,100 H 150 c -27.5,0 -50,22.5 -50,50 v 300 c 0,27.5 22.5,50 50,50 h 1250 c 27.5,0 50,-22.5 50,-50 V 150 c 0,-27.5 -22.5,-50 -50,-50" style="fill-opacity: 1; fill-rule: nonzero; stroke: none; fill: rgb(255, 255, 255);" id="path14"/>
      <path d="M 1400 517.323 L 150 517.323 C 122.5 517.323 100 492.805 100 462.838 L 100 135.925 C 100 105.958 122.5 81.44 150 81.44 L 1400 81.44 C 1427.5 81.44 1450 105.958 1450 135.925 L 1450 462.838 C 1450 492.805 1427.5 517.323 1400 517.323 M 1400 508.606 C 1423.16 508.606 1442 488.071 1442 462.838 L 1442 135.925 C 1442 110.687 1423.16 90.153 1400 90.153 L 150 90.153 C 126.844 90.153 108 110.687 108 135.925 L 108 462.838 C 108 488.071 126.844 508.606 150 508.606 L 1246.802 508.606 L 1400 508.606" style="fill-opacity: 1; fill-rule: nonzero; stroke: none;" id="path16"/>
      <path d="m 1169.36,200 h 18.66 v 125.012 h -18.66 z m 168.07,79.98 -21.39,-54.199 h -0.64 l -22.2,54.199 h -20.1 l 33.29,-75.753 -18.98,-42.137 h 19.47 l 51.3,117.89 z m -105.82,-65.781 c -6.12,0 -14.64,3.055 -14.64,10.617 0,9.649 10.62,13.348 19.78,13.348 8.21,0 12.06,-1.769 17.05,-4.184 -1.45,-11.578 -11.42,-19.781 -22.19,-19.781 z m 2.25,68.516 c -13.51,0 -27.5,-5.953 -33.29,-19.141 l 16.56,-6.914 c 3.54,6.914 10.13,9.168 17.05,9.168 9.65,0 19.46,-5.793 19.62,-16.086 v -1.285 c -3.38,1.93 -10.61,4.824 -19.46,4.824 -17.85,0 -36.03,-9.808 -36.03,-28.144 0,-16.727 14.64,-27.504 31.04,-27.504 12.55,0 19.46,5.629 23.81,12.222 h 0.64 v -9.648 h 18.01 v 47.93 c 0,22.191 -16.56,34.578 -37.95,34.578 z M 1118.54,264.762 H 1092 v 42.851 h 26.54 c 13.95,0 21.87,-11.55 21.87,-21.425 0,-9.688 -7.92,-21.426 -21.87,-21.426 z m -0.48,60.25 h -44.71 V 200 H 1092 v 47.363 h 26.06 c 20.68,0 41.01,14.973 41.01,38.825 0,23.851 -20.33,38.824 -41.01,38.824 z M 874.25,214.176 c -12.891,0 -23.684,10.793 -23.684,25.617 0,14.98 10.793,25.937 23.684,25.937 12.727,0 22.715,-10.957 22.715,-25.937 0,-14.824 -9.988,-25.617 -22.715,-25.617 z m 21.426,58.804 h -0.645 c -4.187,4.993 -12.246,9.504 -22.394,9.504 -21.266,0 -40.758,-18.687 -40.758,-42.691 0,-23.844 19.492,-42.371 40.758,-42.371 10.148,0 18.207,4.512 22.394,9.664 h 0.645 v -6.121 c 0,-16.274 -8.699,-24.973 -22.715,-24.973 -11.438,0 -18.527,8.219 -21.43,15.145 l -16.269,-6.766 c 4.672,-11.277 17.078,-25.133 37.699,-25.133 21.91,0 40.437,12.891 40.437,44.305 v 76.363 H 895.676 Z M 926.285,200 h 18.688 v 125.016 h -18.688 z m 46.238,41.242 c -0.484,16.434 12.727,24.809 22.231,24.809 7.416,0 13.696,-3.703 15.786,-9.024 z m 57.997,14.176 c -3.54,9.508 -14.34,27.066 -36.411,27.066 -21.91,0 -40.113,-17.238 -40.113,-42.531 0,-23.844 18.043,-42.531 42.207,-42.531 19.497,0 30.777,11.922 35.447,18.848 l -14.5,9.668 c -4.83,-7.09 -11.44,-11.762 -20.947,-11.762 -9.504,0 -16.269,4.351 -20.621,12.887 l 56.868,23.523 z m -453.082,14.016 v -18.043 h 43.175 c -1.289,-10.149 -4.672,-17.559 -9.828,-22.715 -6.281,-6.285 -16.109,-13.211 -33.347,-13.211 -26.583,0 -47.364,21.426 -47.364,48.008 0,26.582 20.781,48.011 47.364,48.011 14.339,0 24.808,-5.64 32.542,-12.89 l 12.727,12.726 c -10.793,10.313 -25.133,18.207 -45.269,18.207 -36.411,0 -67.02,-29.644 -67.02,-66.054 0,-36.41 30.609,-66.051 67.02,-66.051 19.656,0 34.476,6.441 46.074,18.527 11.922,11.922 15.629,28.676 15.629,42.207 0,4.192 -0.321,8.055 -0.969,11.278 z m 110.789,-55.258 c -12.891,0 -24.008,10.633 -24.008,25.777 0,15.305 11.117,25.777 24.008,25.777 12.886,0 24.003,-10.472 24.003,-25.777 0,-15.144 -11.117,-25.777 -24.003,-25.777 z m 0,68.308 c -23.524,0 -42.696,-17.882 -42.696,-42.531 0,-24.488 19.172,-42.531 42.696,-42.531 23.519,0 42.691,18.043 42.691,42.531 0,24.649 -19.172,42.531 -42.691,42.531 z m 93.132,-68.308 c -12.886,0 -24.004,10.633 -24.004,25.777 0,15.305 11.118,25.777 24.004,25.777 12.887,0 24.004,-10.472 24.004,-25.777 0,-15.144 -11.117,-25.777 -24.004,-25.777 z m 0,68.308 c -23.523,0 -42.691,-17.882 -42.691,-42.531 0,-24.488 19.168,-42.531 42.691,-42.531 23.52,0 42.692,18.043 42.692,42.531 0,24.649 -19.172,42.531 -42.692,42.531" style="fill-opacity: 1; fill-rule: nonzero; stroke: none;" id="path18"/>
      <g id="g20">
        <g id="g22" clip-path="url(#clipPath26)">
          <path d="m 205.098,176.105 -0.743,0.711 c -2.91,3.079 -4.628,7.86 -4.628,14.051 v -1.457 0 221.16 c 0,0.02 0,0.035 0,0.051 0,-0.019 0,-0.035 0,-0.055 v -1.461 c 0,6.704 2.003,11.754 5.359,14.782 L 328.984,299.992 205.098,176.105 m -5.371,234.528 c 0,0.551 0.015,1.086 0.043,1.613 -0.028,-0.523 -0.043,-1.062 -0.043,-1.613 m 0.043,1.637 c 0,0.007 0,0.015 0.003,0.023 -0.003,-0.008 -0.003,-0.016 -0.003,-0.023 m 0.003,0.07 c 0,0.004 0,0.008 0,0.012 0,-0.004 0,-0.008 0,-0.012" style="fill:url(#linearGradient40);fill-opacity:1;fill-rule:nonzero;stroke:none" id="path42"/>
        </g>
      </g>
      <g id="g44">
        <g id="g46" clip-path="url(#clipPath50)">
          <path d="m 370.277,257.215 v 0 l 0.942,0.535 48.929,27.801 c 4.665,2.652 7.774,5.867 9.325,9.269 -1.547,-3.402 -4.657,-6.621 -9.325,-9.273 l -48.929,-27.801 -0.942,-0.531 m 0.012,1.465 -41.305,41.312 41.301,41.305 49.863,-28.328 c 6.332,-3.598 9.887,-8.235 10.481,-12.973 0,-0.004 0,-0.012 0,-0.019 -0.594,-4.727 -4.149,-9.368 -10.481,-12.965 L 370.289,258.68" style="fill:url(#linearGradient60);fill-opacity:1;fill-rule:nonzero;stroke:none" id="path62"/>
        </g>
      </g>
      <g id="g64">
        <g id="g66" clip-path="url(#clipPath70)">
          <path d="m 213.93,171.387 c -3.461,0 -6.481,1.125 -8.836,3.25 l 0.004,0.004 c 2.355,-2.125 5.379,-3.254 8.84,-3.254 0.3,0 0.605,0.008 0.914,0.023 -0.313,-0.015 -0.622,-0.023 -0.922,-0.023 m 0.004,1.465 c -3.461,-0.004 -6.481,1.125 -8.836,3.25 v 0 0.003 l 123.886,123.887 41.305,-41.312 v 0 L 225.137,176.207 c -4.016,-2.277 -7.821,-3.355 -11.203,-3.355 m -8.871,1.812 c -0.219,0.199 -0.434,0.41 -0.645,0.629 l 0.645,-0.629" style="fill:url(#linearGradient76);fill-opacity:1;fill-rule:nonzero;stroke:none" id="path78"/>
        </g>
      </g>
      <g id="g80">
        <g id="g82" clip-path="url(#clipPath86)">
          <path d="m 328.984,299.992 v 0 L 205.086,423.887 c 2.355,2.121 5.371,3.246 8.828,3.246 3.391,0 7.199,-1.082 11.223,-3.363 l 145.148,-82.473 -41.301,-41.305 m 42.235,42.238 -146.082,83 c -4.024,2.282 -7.832,3.364 -11.223,3.364 -0.016,0 -0.027,0 -0.043,0 0.02,0 0.035,0 0.059,0 3.383,0 7.187,-1.078 11.207,-3.36 L 371.219,342.23 M 213.84,428.594 v 0 0" style="fill:url(#linearGradient98);fill-opacity:1;fill-rule:nonzero;stroke:none" id="path100"/>
        </g>
      </g>
      <path d="m 214.852,171.41 c 3.144,0.18 6.625,1.262 10.285,3.336 l 145.14,82.469 v 0 l -145.14,-82.469 c -3.657,-2.078 -7.141,-3.156 -10.285,-3.336 m -9.758,3.227 -0.031,0.027 c 0.011,-0.008 0.023,-0.019 0.031,-0.027 v 0 m -0.676,0.656 -0.063,0.062 v 0.004 c 0.024,-0.023 0.043,-0.046 0.063,-0.066" style="fill:#000000;fill-opacity:1;fill-rule:nonzero;stroke:none" id="path102"/>
      <g id="g104">
        <g id="g106" clip-path="url(#clipPath110)">
          <path d="m 370.277,257.215 v 0 l 0.942,0.535 -0.942,-0.535" style="fill:url(#linearGradient120);fill-opacity:1;fill-rule:nonzero;stroke:none" id="path122"/>
        </g>
      </g>
      <g id="g124">
        <g id="g126" clip-path="url(#clipPath130)">
          <path d="m 213.938,171.387 c -3.461,0 -6.485,1.129 -8.84,3.254 l -0.004,-0.004 c -0.008,0.008 -0.02,0.019 -0.031,0.027 l -0.645,0.629 c -0.02,0.02 -0.039,0.043 -0.063,0.066 l 0.743,0.743 c 2.355,-2.125 5.375,-3.254 8.836,-3.25 3.382,0 7.187,1.078 11.203,3.355 l 145.152,82.473 0.93,-0.93 -0.942,-0.535 -145.14,-82.469 c -3.66,-2.074 -7.141,-3.156 -10.285,-3.336 -0.309,-0.015 -0.614,-0.023 -0.914,-0.023" style="fill:url(#linearGradient136);fill-opacity:1;fill-rule:nonzero;stroke:none" id="path138"/>
        </g>
      </g>
      <path d="m 204.355,175.355 c -2.91,3.079 -4.628,7.86 -4.628,14.051 v 0.004 c 0,-6.195 1.718,-10.972 4.628,-14.051 v 0 0 -0.004" style="fill:#000000;fill-opacity:1;fill-rule:nonzero;stroke:none" id="path140"/>
      <g id="g142">
        <g id="g144" clip-path="url(#clipPath148)">
          <path d="m 204.355,175.359 v 0 c -2.91,3.079 -4.628,7.856 -4.628,14.051 v 1.457 c 0,-6.191 1.718,-10.972 4.628,-14.051 l 0.743,-0.711 -0.743,-0.746" style="fill:url(#linearGradient162);fill-opacity:1;fill-rule:nonzero;stroke:none" id="path164"/>
        </g>
      </g>
      <g id="g166">
        <g id="g168" clip-path="url(#clipPath172)">
          <path d="m 204.355,175.359 v 0 0 l 0.743,0.746 v -0.003 l -0.743,-0.743" style="fill:url(#linearGradient178);fill-opacity:1;fill-rule:nonzero;stroke:none" id="path180"/>
        </g>
      </g>
      <path d="m 429.473,294.82 c 0.769,1.688 1.156,3.422 1.156,5.157 0,0.003 0,0.007 0,0.007 0,-1.738 -0.387,-3.472 -1.156,-5.164" style="fill:#000000;fill-opacity:1;fill-rule:nonzero;stroke:none" id="path182"/>
      <g id="g184">
        <g id="g186" clip-path="url(#clipPath190)">
          <path d="m 371.219,257.75 v 0 l -0.93,0.93 49.859,28.332 c 6.332,3.597 9.887,8.238 10.481,12.965 0,-1.735 -0.387,-3.469 -1.156,-5.157 -1.551,-3.402 -4.66,-6.617 -9.325,-9.269 L 371.219,257.75" style="fill:url(#linearGradient200);fill-opacity:1;fill-rule:nonzero;stroke:none" id="path202"/>
        </g>
      </g>
      <path d="m 430.629,299.992 v 0.004 c -0.004,5.231 -3.5,10.461 -10.481,14.43 l -48.929,27.801 h -0.004 l 0.004,0.003 48.929,-27.8 c 6.989,-3.969 10.489,-9.207 10.481,-14.438" style="fill:#404040;fill-opacity:1;fill-rule:nonzero;stroke:none" id="path204"/>
      <g id="g206">
        <g id="g208" clip-path="url(#clipPath212)">
          <path d="m 430.629,299.996 c -0.594,4.738 -4.149,9.375 -10.481,12.973 l -49.863,28.328 0.93,0.93 h 0.004 l 48.929,-27.801 c 6.981,-3.969 10.477,-9.199 10.481,-14.43" style="fill:url(#linearGradient222);fill-opacity:1;fill-rule:nonzero;stroke:none" id="path224"/>
        </g>
      </g>
      <path d="m 199.727,410.621 c 0,0.004 0,0.008 0,0.012 0,-0.004 0,-0.008 0,-0.012 m 0.043,1.625 c 0,0.008 0,0.016 0,0.024 0,-0.008 0,-0.016 0,-0.024 m 0.003,0.047 c 0,0.016 0,0.031 0,0.047 0,-0.016 0,-0.031 0,-0.047 m 0,0.059 c 0.579,10.273 6.165,16.207 14.067,16.242 -3.426,-0.02 -6.41,-1.145 -8.746,-3.25 v 0.004 l -0.028,-0.028 c -0.246,-0.222 -0.48,-0.457 -0.711,-0.699 v 0 c -2.625,-2.777 -4.281,-6.937 -4.582,-12.269" style="fill:#404040;fill-opacity:1;fill-rule:nonzero;stroke:none" id="path226"/>
      <g id="g228">
        <g id="g230" clip-path="url(#clipPath234)">
          <path d="m 199.727,409.105 v 1.461 c 0,0.02 0,0.036 0,0.055 0,0.004 0,0.008 0,0.012 0,0.551 0.015,1.09 0.043,1.613 0,0.008 0,0.016 0,0.024 0,0.007 0,0.015 0.003,0.023 0,0.016 0,0.031 0,0.047 0,0.004 0,0.008 0,0.012 0.301,5.332 1.957,9.492 4.582,12.269 v 0 0 l 0.731,-0.734 c -3.356,-3.028 -5.359,-8.078 -5.359,-14.782 m 5.339,16.215 0.028,0.028 c -0.008,-0.012 -0.02,-0.02 -0.028,-0.028" style="fill:url(#linearGradient248);fill-opacity:1;fill-rule:nonzero;stroke:none" id="path250"/>
        </g>
      </g>
      <path d="m 213.84,428.594 c 0.008,0 0.019,0 0.031,0 -0.012,0 -0.023,0 -0.031,0" style="fill:#404040;fill-opacity:1;fill-rule:nonzero;stroke:none" id="path252"/>
      <g id="g254">
        <g id="g256" clip-path="url(#clipPath260)">
          <path d="M 370.285,341.297 225.137,423.77 c -4.024,2.281 -7.832,3.363 -11.223,3.363 -3.457,0 -6.473,-1.125 -8.828,-3.246 l -0.731,0.734 v 0 c 0.231,0.242 0.465,0.477 0.711,0.699 0.008,0.008 0.02,0.016 0.028,0.024 2.336,2.105 5.32,3.23 8.746,3.25 v 0 c 0.008,0 0.019,0 0.031,0 0.016,0 0.027,0 0.043,0 3.391,0 7.199,-1.082 11.223,-3.364 l 146.082,-83 -0.004,-0.003 -0.93,-0.93" style="fill:url(#linearGradient272);fill-opacity:1;fill-rule:nonzero;stroke:none" id="path274"/>
        </g>
      </g>
      <g>
        <path d="M 813.027 415.051 C 811.309 412.578 808.945 409.895 805.938 406.992 C 802.676 409.57 800.039 411.953 798.035 414.137 C 801.797 417.895 804.355 420.582 805.723 422.191 C 808.047 419.648 810.48 417.27 813.027 415.051 L 813.027 415.051 Z M 804.27 354.945 C 797.996 354.945 793.113 356.742 789.602 360.348 C 786.094 363.941 784.336 369.039 784.336 375.625 C 784.336 377.738 784.473 379.73 784.746 381.617 C 785.012 383.492 785.598 386.238 786.484 389.859 L 790.52 388.891 C 789.688 385.668 789.277 383.059 789.277 381.051 C 789.277 375.68 790.625 371.5 793.313 368.512 C 795.996 365.52 799.734 364.023 804.531 364.023 C 809.98 364.023 815.398 365.348 820.813 367.996 C 826.223 370.648 829.836 373.906 831.66 377.773 C 826.863 388.266 824.465 395.266 824.465 398.773 C 824.465 400.676 825 402.395 826.074 403.93 C 827.148 405.469 829.016 407.027 831.66 408.605 C 831.98 406.023 832.82 401.277 834.18 394.371 L 834.238 393.941 C 836.672 392.727 839.336 392.113 842.246 392.113 L 843.152 391.199 L 843.152 384.648 L 842.246 383.734 C 839.766 383.734 837.551 384.184 835.586 385.078 L 835.742 381.91 C 835.742 377.398 834.309 373.082 831.445 368.965 C 828.586 364.848 824.656 361.48 819.688 358.867 C 814.707 356.254 809.57 354.945 804.27 354.945" style="fill-opacity: 1; fill-rule: nonzero; stroke: none;" id="path276"/>
        <path d="M 813.027 415.051 L 812.207 415.621 C 810.539 413.223 808.219 410.578 805.242 407.711 L 805.938 406.992 L 806.559 407.777 C 803.324 410.332 800.727 412.684 798.773 414.813 L 798.035 414.137 L 798.742 413.43 C 802.516 417.199 805.078 419.887 806.484 421.547 L 805.723 422.191 L 804.984 421.52 C 807.336 418.945 809.793 416.543 812.371 414.297 L 813.027 415.051 L 812.207 415.621 L 813.027 415.051 L 813.684 415.805 C 811.164 418 808.762 420.352 806.461 422.867 L 805.695 423.703 L 804.961 422.84 C 803.633 421.273 801.078 418.594 797.328 414.844 L 796.652 414.164 L 797.301 413.461 C 799.352 411.223 802.027 408.809 805.316 406.207 L 806.004 405.668 L 806.633 406.273 C 809.672 409.207 812.078 411.934 813.848 414.477 L 814.359 415.215 L 813.684 415.805 L 813.027 415.051 Z M 804.27 354.945 L 804.27 355.945 C 798.18 355.953 793.617 357.668 790.316 361.047 C 787.035 364.41 785.34 369.207 785.336 375.625 C 785.336 377.695 785.469 379.641 785.734 381.473 L 785.738 381.492 L 785.734 381.477 C 785.988 383.285 786.57 386.02 787.453 389.621 L 786.484 389.859 L 786.25 388.887 L 790.285 387.918 L 790.52 388.891 L 789.551 389.141 C 788.707 385.867 788.277 383.191 788.277 381.051 C 788.273 375.52 789.676 371.059 792.566 367.844 C 795.449 364.613 799.539 363.012 804.531 363.023 C 810.145 363.023 815.723 364.391 821.25 367.102 C 826.785 369.813 830.605 373.207 832.563 377.348 L 832.762 377.766 L 832.57 378.188 C 827.785 388.613 825.434 395.656 825.465 398.773 C 825.469 400.484 825.934 401.977 826.895 403.359 C 827.836 404.715 829.594 406.215 832.172 407.746 L 831.66 408.605 L 830.668 408.48 C 830.996 405.848 831.84 401.098 833.199 394.176 L 834.18 394.371 L 833.188 394.234 L 833.246 393.805 L 833.32 393.281 L 833.789 393.047 C 836.363 391.758 839.195 391.113 842.246 391.113 L 842.246 392.113 L 841.535 391.41 L 842.152 390.789 L 842.152 385.063 L 841.535 384.441 L 842.246 383.734 L 842.246 384.734 C 839.887 384.734 837.82 385.16 836 385.988 L 834.508 386.668 L 834.742 381.859 L 835.742 381.91 L 834.742 381.91 C 834.738 377.613 833.387 373.516 830.625 369.535 C 827.863 365.563 824.07 362.301 819.223 359.754 C 814.371 357.211 809.406 355.949 804.27 355.945 L 804.27 354.945 L 804.27 353.945 C 809.734 353.945 815.043 355.301 820.152 357.98 C 825.242 360.656 829.305 364.133 832.266 368.395 C 835.227 372.648 836.746 377.184 836.742 381.91 L 836.742 381.934 L 836.586 385.129 L 835.586 385.078 L 835.172 384.168 C 837.277 383.207 839.645 382.734 842.246 382.734 L 842.66 382.734 L 843.863 383.941 L 844.152 384.234 L 844.152 391.199 L 844.152 391.613 L 842.953 392.82 L 842.66 393.113 L 842.246 393.113 C 839.477 393.113 836.977 393.691 834.684 394.836 L 834.238 393.941 L 835.23 394.074 L 835.172 394.504 L 835.168 394.535 L 835.16 394.563 C 833.805 401.461 832.969 406.203 832.652 408.727 L 832.461 410.246 L 831.148 409.465 C 828.434 407.84 826.461 406.223 825.254 404.504 C 824.066 402.809 823.461 400.863 823.465 398.773 C 823.492 394.871 825.945 387.918 830.75 377.359 L 831.66 377.773 L 830.758 378.199 C 829.059 374.605 825.656 371.488 820.371 368.895 C 815.078 366.305 809.816 365.023 804.531 365.023 C 799.934 365.035 796.543 366.422 794.055 369.18 C 791.574 371.938 790.281 375.836 790.277 381.051 C 790.277 382.922 790.668 385.469 791.484 388.641 L 791.738 389.629 L 786.719 390.832 L 785.75 391.063 L 785.512 390.098 C 784.621 386.461 784.027 383.695 783.758 381.754 L 783.758 381.762 C 783.477 379.824 783.336 377.781 783.336 375.625 C 783.328 368.871 785.152 363.469 788.883 359.648 C 792.609 355.82 797.816 353.938 804.27 353.945 L 804.27 354.945" style="fill-opacity: 1; fill-rule: nonzero; stroke: none;" id="path278"/>
        <path d="M 879.719 392.113 C 879.57 396.66 878.711 401.012 877.141 405.168 C 875.566 409.32 874.004 411.395 872.473 411.395 C 871.063 411.395 869.766 410.984 868.547 410.16 C 867.324 409.336 866.113 408.066 864.895 406.348 C 863.672 404.629 862.031 401.73 859.949 397.645 C 865.105 394.82 871.699 392.973 879.719 392.113 L 879.719 392.113 Z M 842.766 383.734 L 841.848 384.648 L 841.848 391.199 L 842.766 392.113 C 845.559 392.113 847.91 392.789 849.824 394.125 C 851.738 395.473 853.398 397.52 854.797 400.277 L 857.004 404.684 C 859.824 410.699 862.59 414.941 865.293 417.41 C 867.996 419.883 870.969 421.117 874.188 421.117 C 876.34 421.117 878.477 419.809 880.605 417.195 C 882.734 414.586 884.453 411.215 885.762 407.102 C 887.07 402.984 887.727 399.008 887.727 395.176 C 887.727 392.922 887.305 390.867 886.484 389.027 C 885.664 387.184 884.211 385.422 882.141 383.734 C 877.727 383.734 873.047 384.348 868.086 385.563 C 863.125 386.777 858.984 388.355 855.652 390.289 C 853.938 387.961 852.063 386.285 850.012 385.27 C 847.98 384.242 845.559 383.734 842.766 383.734" style="fill-opacity: 1; fill-rule: nonzero; stroke: none;" id="path280"/>
        <path d="M 879.719 392.113 L 880.715 392.145 C 880.566 396.797 879.688 401.262 878.074 405.52 C 876.414 409.699 874.992 412.211 872.473 412.395 C 870.867 412.398 869.348 411.918 867.984 410.988 C 866.625 410.066 865.344 408.711 864.078 406.926 C 862.801 405.125 861.152 402.203 859.059 398.102 L 858.621 397.234 L 859.469 396.77 C 864.781 393.859 871.5 391.988 879.609 391.121 L 880.754 390.996 L 880.715 392.145 L 879.719 392.113 L 879.824 393.109 C 871.898 393.957 865.434 395.781 860.434 398.523 L 859.949 397.645 L 860.844 397.191 C 862.91 401.254 864.547 404.133 865.707 405.77 C 866.883 407.426 868.023 408.605 869.105 409.332 C 870.184 410.059 871.262 410.395 872.473 410.395 C 873.016 410.582 874.719 408.945 876.203 404.813 C 877.734 400.762 878.574 396.523 878.719 392.082 L 879.719 392.113 L 879.824 393.109 L 879.719 392.113 Z M 842.766 383.734 L 843.469 384.445 L 842.848 385.063 L 842.848 390.785 L 843.469 391.406 L 842.766 392.113 L 842.766 391.113 C 845.715 391.113 848.293 391.836 850.398 393.305 L 850.398 393.309 C 852.484 394.777 854.238 396.965 855.688 399.828 L 857.895 404.234 L 857.902 404.246 L 857.906 404.258 C 860.695 410.211 863.426 414.359 865.969 416.676 C 868.535 419.008 871.227 420.113 874.188 420.117 C 875.898 420.125 877.789 419.066 879.828 416.566 C 881.859 414.074 883.527 410.824 884.809 406.797 C 886.09 402.766 886.723 398.895 886.727 395.176 C 886.723 393.043 886.328 391.141 885.57 389.434 C 884.836 387.777 883.492 386.125 881.508 384.512 L 882.141 383.734 L 882.141 384.734 C 877.816 384.734 873.219 385.332 868.324 386.531 C 863.434 387.73 859.379 389.281 856.156 391.152 L 855.383 391.602 L 854.852 390.883 C 853.199 388.645 851.441 387.094 849.566 386.164 L 849.559 386.16 C 847.695 385.223 845.438 384.734 842.766 384.734 L 842.766 383.734 L 843.469 384.445 L 842.766 383.734 L 842.766 382.734 C 845.676 382.734 848.262 383.266 850.461 384.375 L 850.453 384.371 C 852.68 385.477 854.672 387.273 856.461 389.695 L 855.652 390.289 L 855.152 389.422 C 858.59 387.43 862.816 385.824 867.848 384.59 C 872.875 383.359 877.633 382.734 882.141 382.734 L 882.492 382.734 L 882.77 382.961 C 884.926 384.715 886.492 386.59 887.398 388.621 C 888.281 390.598 888.727 392.797 888.727 395.176 C 888.727 399.121 888.051 403.199 886.715 407.402 C 885.379 411.609 883.609 415.094 881.383 417.828 C 879.164 420.555 876.773 422.109 874.188 422.117 C 870.703 422.125 867.461 420.758 864.617 418.148 C 861.75 415.523 858.953 411.188 856.098 405.105 L 857.004 404.684 L 856.109 405.133 L 853.902 400.727 L 853.902 400.73 C 852.559 398.074 850.992 396.172 849.25 394.945 C 847.527 393.742 845.398 393.117 842.766 393.113 L 842.352 393.113 L 841.141 391.91 L 840.848 391.617 L 840.848 384.648 L 840.848 384.234 L 842.059 383.027 L 842.352 382.734 L 842.766 382.734 L 842.766 383.734" style="fill-opacity: 1; fill-rule: nonzero; stroke: none;" id="path282"/>
        <path d="M 929.988 403.285 C 932.93 400.781 936.191 399.117 939.773 398.293 C 943.352 397.465 947.305 397.02 951.641 396.949 L 948.801 414.672 L 948.738 414.887 C 939.973 411.879 933.723 408.012 929.988 403.285 Z M 947.82 388.031 C 943.816 388.391 941.063 388.738 939.563 389.078 C 938.059 389.418 936.484 389.902 934.855 390.531 C 933.223 391.156 931.555 391.953 929.836 392.922 C 928.113 393.887 926.816 394.82 925.938 395.715 L 924.617 398.184 C 924.617 399.148 925.117 400.816 926.105 403.18 C 927.09 405.543 927.898 407.281 928.547 408.391 C 929.656 410.43 932.078 412.781 935.82 415.453 C 939.563 418.121 943.523 420.293 947.727 421.977 L 947.344 424.984 C 949.883 427.273 952.551 429.195 955.344 430.73 L 956.367 395.016 C 959.695 393.082 963.508 392.113 967.805 392.113 L 968.723 391.199 L 968.723 384.648 L 967.805 383.734 C 963.367 383.734 959.766 384.566 957.012 386.234 C 954.258 387.895 952.668 390.254 952.234 393.297 L 951.855 395.605 L 947.82 388.031" style="fill-opacity: 1; fill-rule: nonzero; stroke: none;" id="path284"/>
        <path d="M 929.988 403.285 L 929.344 402.523 C 932.391 399.926 935.809 398.176 939.551 397.316 C 943.207 396.473 947.23 396.023 951.625 395.949 L 952.816 395.93 L 949.777 414.887 L 949.703 415.152 L 949.426 416.18 L 948.418 415.836 C 939.543 412.785 933.113 408.852 929.203 403.906 L 928.609 403.148 L 929.344 402.523 L 929.988 403.285 L 930.773 402.668 C 934.324 407.172 940.402 410.973 949.066 413.941 L 948.738 414.887 L 947.773 414.625 L 947.82 414.461 L 950.652 396.789 L 951.641 396.949 L 951.656 397.949 C 947.379 398.02 943.492 398.461 940 399.266 C 936.574 400.055 933.469 401.637 930.641 404.047 L 929.988 403.285 L 930.773 402.668 L 929.988 403.285 Z M 947.82 388.031 L 947.91 389.027 C 943.93 389.383 941.184 389.734 939.777 390.055 C 938.328 390.383 936.805 390.852 935.215 391.465 L 935.211 391.465 C 933.633 392.07 932.008 392.844 930.324 393.793 C 928.656 394.727 927.426 395.621 926.648 396.414 L 925.938 395.715 L 926.82 396.184 L 925.5 398.652 L 924.617 398.184 L 925.617 398.184 C 925.602 398.836 926.051 400.488 927.027 402.793 C 928.004 405.137 928.809 406.852 929.41 407.887 L 929.414 407.895 L 929.422 407.91 C 930.391 409.711 932.719 412.02 936.402 414.641 C 940.078 417.262 943.973 419.395 948.098 421.051 L 948.813 421.336 L 948.336 425.109 L 947.344 424.984 L 948.012 424.242 C 950.5 426.484 953.105 428.359 955.824 429.855 L 955.344 430.73 L 954.344 430.703 L 955.383 394.43 L 955.863 394.148 C 959.355 392.121 963.355 391.113 967.805 391.113 L 967.805 392.113 L 967.098 391.406 L 967.723 390.785 L 967.723 385.063 L 967.098 384.445 L 967.805 383.734 L 967.805 384.734 C 963.488 384.734 960.074 385.547 957.531 387.09 L 957.527 387.094 C 954.992 388.637 953.633 390.668 953.227 393.438 L 953.227 393.449 L 952.844 395.77 L 952.359 398.684 L 946.941 388.504 L 947.82 388.031 L 947.91 389.027 L 947.82 388.031 L 948.703 387.563 L 952.738 395.137 L 951.855 395.605 L 950.867 395.441 L 951.25 393.133 L 952.234 393.297 L 951.246 393.156 C 951.699 389.84 953.523 387.152 956.496 385.379 L 956.492 385.379 C 959.457 383.586 963.246 382.734 967.805 382.734 L 968.215 382.734 L 969.426 383.938 L 969.723 384.234 L 969.723 391.199 L 969.723 391.617 L 968.508 392.824 L 968.215 393.113 L 967.805 393.113 C 963.652 393.117 960.035 394.043 956.867 395.879 L 956.367 395.016 L 957.367 395.043 L 956.293 432.398 L 954.859 431.609 C 951.992 430.031 949.266 428.066 946.676 425.727 L 946.285 425.379 L 946.73 421.852 L 947.727 421.977 L 947.352 422.906 C 943.078 421.191 939.043 418.98 935.238 416.27 C 931.441 413.547 928.926 411.152 927.668 408.867 L 928.547 408.391 L 927.68 408.891 C 926.992 407.707 926.176 405.949 925.18 403.563 C 924.184 401.141 923.637 399.465 923.617 398.184 L 923.617 397.934 L 925.055 395.242 L 925.121 395.113 L 925.227 395.012 C 926.203 394.016 927.574 393.047 929.344 392.047 C 931.098 391.063 932.813 390.242 934.496 389.598 L 934.492 389.598 C 936.164 388.953 937.781 388.457 939.34 388.102 C 940.945 387.742 943.707 387.395 947.734 387.035 L 948.395 386.977 L 948.703 387.563 L 947.82 388.031" style="fill-opacity: 1; fill-rule: nonzero; stroke: none;" id="path286"/>
        <path d="M 1004.5 371.383 C 1003.17 369.309 1000.97 366.816 997.891 363.918 C 994.707 366.461 992.285 368.695 990.637 370.629 C 992.285 372.133 994.648 374.605 997.727 378.043 C 998.367 377.324 1000.63 375.105 1004.5 371.383 Z M 987.898 369.824 C 986.57 367.711 984.402 365.203 981.395 362.305 C 978.105 364.957 975.676 367.191 974.094 369.02 C 976.023 370.813 978.391 373.281 981.184 376.43 C 981.824 375.754 984.07 373.551 987.898 369.824 Z M 997.727 408.766 C 998.73 408.766 999.629 408.477 1000.42 407.906 C 999.094 404.719 997.93 402.051 996.926 399.902 C 995.918 397.754 995.313 396.555 995.098 396.305 C 997.566 394.727 999.871 393.637 1002 393.027 C 1004.13 392.418 1006.45 392.113 1008.96 392.113 L 1009.87 391.199 L 1009.87 384.648 L 1008.96 383.734 C 1002.19 383.734 996.387 385.863 991.555 390.129 L 989.773 387.766 C 989.031 386.938 986.367 386.063 981.809 385.133 C 977.234 384.199 972.754 383.734 968.352 383.734 L 967.434 384.648 L 967.434 391.199 L 968.352 392.113 C 972.898 392.113 976.758 392.309 979.922 392.703 C 983.098 393.102 985.332 393.762 986.641 394.691 C 987.949 395.625 989.871 398.539 992.41 403.445 L 994.348 406.992 C 994.988 408.176 996.121 408.766 997.727 408.766" style="fill-opacity: 1; fill-rule: nonzero; stroke: none;" id="path288"/>
        <path d="M 1004.5 371.383 L 1003.66 371.922 C 1002.41 369.961 1000.25 367.512 997.203 364.645 L 997.891 363.918 L 998.516 364.695 C 995.363 367.215 992.98 369.422 991.395 371.277 L 990.637 370.629 L 991.309 369.891 C 993.008 371.441 995.383 373.926 998.469 377.375 L 997.727 378.043 L 996.98 377.375 C 997.688 376.59 999.93 374.398 1003.81 370.66 L 1004.5 371.383 L 1003.66 371.922 L 1004.5 371.383 L 1005.2 372.102 C 1001.34 375.816 999.051 378.059 998.469 378.711 L 997.723 379.539 L 996.98 378.711 C 993.918 375.285 991.563 372.828 989.961 371.367 L 989.246 370.719 L 989.875 369.98 C 991.59 367.973 994.051 365.703 997.266 363.137 L 997.945 362.594 L 998.578 363.188 C 1001.69 366.121 1003.94 368.652 1005.34 370.844 L 1005.79 371.531 L 1005.2 372.102 L 1004.5 371.383 Z M 987.898 369.824 L 987.055 370.355 C 985.797 368.352 983.676 365.891 980.703 363.023 L 981.395 362.305 L 982.023 363.082 C 978.762 365.711 976.363 367.922 974.848 369.672 L 974.094 369.02 L 974.77 368.285 C 976.742 370.113 979.121 372.602 981.93 375.766 L 981.184 376.43 L 980.457 375.742 C 981.137 375.027 983.367 372.84 987.203 369.109 L 987.898 369.824 L 987.055 370.355 L 987.898 369.824 L 988.598 370.543 C 984.773 374.262 982.516 376.477 981.906 377.117 L 981.156 377.91 L 980.434 377.094 C 977.652 373.961 975.309 371.508 973.41 369.754 L 972.703 369.094 L 973.336 368.363 C 974.984 366.461 977.449 364.199 980.77 361.527 L 981.457 360.973 L 982.09 361.586 C 985.133 364.52 987.348 367.066 988.746 369.293 L 989.176 369.977 L 988.598 370.543 L 987.898 369.824 Z M 997.727 408.766 L 997.727 407.766 L 999.836 407.094 L 1000.42 407.906 L 999.496 408.289 C 998.172 405.109 997.016 402.453 996.02 400.324 C 995.52 399.258 995.117 398.426 994.82 397.844 L 994.461 397.16 L 994.355 396.98 L 994.328 396.945 L 994.48 396.836 L 994.34 396.957 L 994.328 396.945 L 994.48 396.836 L 994.34 396.957 L 993.586 396.082 L 994.559 395.461 C 997.094 393.844 999.477 392.711 1001.73 392.066 C 1003.96 391.426 1006.37 391.113 1008.96 391.113 L 1008.96 392.113 L 1008.25 391.406 L 1008.87 390.785 L 1008.87 385.063 L 1008.25 384.445 L 1008.96 383.734 L 1008.96 384.734 C 1002.4 384.742 996.879 386.773 992.215 390.879 L 991.402 391.594 L 988.977 388.363 L 989.773 387.766 L 989.031 388.434 C 988.813 388.043 986.086 386.973 981.605 386.113 C 977.098 385.191 972.684 384.734 968.352 384.734 L 968.352 383.734 L 969.055 384.445 L 968.434 385.063 L 968.434 390.785 L 969.055 391.406 L 968.352 392.113 L 968.352 391.113 C 972.93 391.113 976.824 391.309 980.047 391.715 C 983.297 392.129 985.652 392.773 987.223 393.879 C 988.867 395.102 990.707 398.027 993.301 402.988 L 992.41 403.445 L 993.289 402.969 L 995.223 406.512 C 995.711 407.348 996.352 407.734 997.727 407.766 L 997.727 408.766 L 997.727 409.766 C 995.895 409.797 994.273 408.996 993.469 407.473 L 991.535 403.926 L 991.527 403.914 L 991.523 403.906 C 989.039 399.055 987.031 396.148 986.059 395.508 C 985.012 394.746 982.895 394.074 979.797 393.695 C 976.691 393.309 972.871 393.113 968.352 393.113 L 967.938 393.113 L 966.727 391.91 L 966.434 391.617 L 966.434 384.648 L 966.434 384.234 L 967.645 383.027 L 967.938 382.734 L 968.352 382.734 C 972.824 382.734 977.375 383.207 982.008 384.152 C 986.648 385.156 989.254 385.836 990.52 387.094 L 990.547 387.129 L 992.352 389.527 L 991.555 390.129 L 990.891 389.379 C 995.895 384.953 1001.98 382.727 1008.96 382.734 L 1009.37 382.734 L 1010.58 383.938 L 1010.87 384.234 L 1010.87 391.199 L 1010.87 391.617 L 1009.66 392.824 L 1009.37 393.113 L 1008.96 393.113 C 1006.53 393.113 1004.31 393.406 1002.28 393.988 C 1000.27 394.563 998.047 395.609 995.637 397.148 L 995.098 396.305 L 995.855 395.648 L 996.605 396.938 C 996.918 397.555 997.324 398.398 997.828 399.477 C 998.844 401.645 1000.01 404.324 1001.34 407.52 L 1001.65 408.254 L 1001.01 408.715 C 1000.05 409.406 998.922 409.77 997.727 409.766 L 997.727 408.766" style="fill-opacity: 1; fill-rule: nonzero; stroke: none;" id="path290"/>
        <path d="M 1010.65 383.734 L 1009.74 384.648 L 1009.74 391.199 L 1010.65 392.113 C 1014.8 392.113 1018.82 393.063 1022.69 394.961 C 1021.72 402.695 1020.56 416.625 1019.19 436.746 L 1018.12 451.41 C 1020.3 453.668 1022.77 455.707 1025.54 457.535 C 1026 447.473 1026.38 431.664 1026.66 410.105 L 1027.04 395.016 C 1030.36 393.082 1034.18 392.113 1038.48 392.113 L 1039.44 391.199 L 1039.44 384.648 L 1038.48 383.734 C 1033.11 383.734 1028.9 385.043 1025.85 387.656 C 1023.17 386.152 1020.75 385.121 1018.6 384.566 C 1016.46 384.016 1013.81 383.734 1010.65 383.734" style="fill-opacity: 1; fill-rule: nonzero; stroke: none;" id="path292"/>
        <path d="M 1010.65 383.734 L 1011.36 384.445 L 1010.74 385.063 L 1010.74 390.785 L 1011.36 391.406 L 1010.65 392.113 L 1010.65 391.113 C 1014.96 391.113 1019.13 392.102 1023.13 394.063 L 1023.77 394.379 L 1023.68 395.086 C 1022.72 402.773 1021.55 416.703 1020.19 436.816 L 1019.11 451.484 L 1018.12 451.41 L 1018.83 450.715 C 1020.97 452.918 1023.38 454.91 1026.09 456.699 L 1025.54 457.535 L 1024.54 457.488 C 1025 447.445 1025.38 431.645 1025.66 410.094 L 1026.06 394.43 L 1026.54 394.152 C 1030.02 392.121 1034.03 391.113 1038.48 391.113 L 1038.48 392.113 L 1037.79 391.387 L 1038.44 390.77 L 1038.44 385.078 L 1037.79 384.461 L 1038.48 383.734 L 1038.48 384.734 C 1033.26 384.738 1029.32 386 1026.5 388.414 L 1025.97 388.871 L 1025.36 388.527 C 1022.74 387.055 1020.39 386.059 1018.35 385.531 C 1016.32 385.012 1013.75 384.734 1010.65 384.734 L 1010.65 383.734 L 1011.36 384.445 L 1010.65 383.734 L 1010.65 382.734 C 1013.87 382.734 1016.59 383.016 1018.85 383.598 C 1021.12 384.184 1023.61 385.25 1026.34 386.785 L 1025.85 387.656 L 1025.2 386.898 C 1028.47 384.09 1032.95 382.73 1038.48 382.734 L 1038.87 382.734 L 1040.13 383.922 L 1040.44 384.219 L 1040.44 391.199 L 1040.44 391.633 L 1039.16 392.84 L 1038.87 393.113 L 1038.48 393.113 C 1034.33 393.117 1030.7 394.043 1027.54 395.879 L 1027.04 395.016 L 1028.04 395.039 L 1027.66 410.133 L 1026.66 410.105 L 1027.66 410.121 C 1027.38 431.684 1027 447.496 1026.54 457.578 L 1026.46 459.34 L 1024.99 458.367 C 1022.16 456.504 1019.64 454.418 1017.4 452.105 L 1017.08 451.785 L 1018.19 436.676 L 1018.19 436.68 C 1019.56 416.551 1020.72 402.613 1021.69 394.836 L 1022.69 394.961 L 1022.24 395.859 C 1018.5 394.023 1014.65 393.113 1010.65 393.113 L 1010.24 393.113 L 1009.03 391.91 L 1008.74 391.617 L 1008.74 384.648 L 1008.74 384.234 L 1009.95 383.027 L 1010.24 382.734 L 1010.65 382.734 L 1010.65 383.734" style="fill-opacity: 1; fill-rule: nonzero; stroke: none;" id="path294"/>
        <path d="M 1039.04 383.734 L 1038.13 384.648 L 1038.13 391.199 L 1039.04 392.113 C 1043.77 392.113 1048.34 392.223 1052.73 392.438 C 1050.99 393.586 1049.45 395.156 1048.14 397.164 C 1046.84 399.172 1046.19 401.301 1046.19 403.555 C 1046.19 406.672 1047.04 409.945 1048.74 413.383 C 1050.44 416.82 1052.64 419.594 1055.31 421.711 C 1058.01 423.824 1060.81 424.879 1063.75 424.879 C 1066.29 424.879 1068.73 424.242 1071.05 422.973 C 1073.38 421.699 1076.08 419.723 1079.16 417.035 L 1077.23 413.547 C 1074.34 414.652 1072.22 415.352 1070.9 415.641 C 1069.57 415.93 1068.12 416.07 1066.54 416.07 C 1062.03 416.07 1057.32 414.727 1052.42 412.043 C 1052.42 408.891 1053.17 406.016 1054.7 403.422 C 1056.22 400.824 1058.44 398.738 1061.33 397.164 C 1064.24 395.586 1067.66 394.691 1071.59 394.477 C 1074.38 395.051 1077.05 395.738 1079.59 396.547 C 1082.14 397.348 1085.7 398.648 1090.28 400.438 C 1091.29 399.508 1091.79 398.203 1091.79 396.52 L 1091.68 395.391 C 1091.25 392.922 1089.73 391.363 1087.11 390.719 C 1078.38 388.535 1071.77 387.035 1067.29 386.234 C 1062.82 385.426 1058.22 384.809 1053.52 384.379 C 1048.81 383.949 1043.98 383.734 1039.04 383.734" style="fill-opacity: 1; fill-rule: nonzero; stroke: none;" id="path296"/>
        <path d="M 1039.04 383.734 L 1039.75 384.445 L 1039.12 385.063 L 1039.12 390.785 L 1039.75 391.406 L 1039.04 392.113 L 1039.04 391.113 C 1043.78 391.113 1048.37 391.223 1052.78 391.438 L 1055.85 391.59 L 1053.28 393.273 C 1051.66 394.336 1050.23 395.801 1048.98 397.711 C 1047.77 399.574 1047.19 401.488 1047.19 403.555 C 1047.19 406.484 1047.99 409.609 1049.64 412.941 C 1051.28 416.262 1053.38 418.91 1055.93 420.926 L 1055.93 420.922 C 1058.49 422.926 1061.06 423.875 1063.75 423.879 C 1066.12 423.875 1068.39 423.289 1070.58 422.098 L 1070.57 422.098 C 1072.8 420.875 1075.46 418.938 1078.5 416.281 L 1079.16 417.035 L 1078.29 417.52 L 1076.35 414.027 L 1077.23 413.547 L 1077.58 414.48 C 1074.67 415.598 1072.53 416.305 1071.11 416.617 C 1069.7 416.922 1068.18 417.07 1066.54 417.07 C 1061.83 417.07 1056.95 415.664 1051.94 412.918 L 1051.42 412.633 L 1051.42 412.043 C 1051.42 408.734 1052.22 405.664 1053.84 402.914 C 1055.45 400.152 1057.82 397.934 1060.85 396.285 L 1060.86 396.281 L 1060.85 396.285 C 1063.91 394.625 1067.48 393.699 1071.54 393.48 L 1071.67 393.473 L 1071.79 393.496 C 1074.62 394.074 1077.32 394.773 1079.89 395.594 C 1082.48 396.406 1086.06 397.711 1090.65 399.508 L 1090.28 400.438 L 1089.6 399.707 C 1090.37 398.98 1090.78 398.016 1090.79 396.52 L 1091.79 396.52 L 1090.79 396.613 L 1090.68 395.484 L 1091.68 395.391 L 1090.69 395.563 C 1090.28 393.438 1089.21 392.313 1086.87 391.688 C 1078.15 389.508 1071.55 388.012 1067.12 387.219 C 1062.67 386.414 1058.1 385.805 1053.42 385.375 C 1048.75 384.949 1043.96 384.734 1039.04 384.734 L 1039.04 383.734 L 1039.75 384.445 L 1039.04 383.734 L 1039.04 382.734 C 1044.01 382.734 1048.87 382.949 1053.61 383.383 C 1058.34 383.816 1062.97 384.434 1067.47 385.25 C 1071.99 386.059 1078.61 387.563 1087.35 389.746 C 1090.25 390.414 1092.22 392.402 1092.66 395.219 L 1092.67 395.258 L 1092.78 396.426 L 1092.79 396.473 L 1092.79 396.52 C 1092.8 398.391 1092.2 400.031 1090.96 401.172 L 1090.5 401.598 L 1089.92 401.371 C 1085.35 399.582 1081.8 398.289 1079.29 397.504 L 1079.29 397.5 C 1076.78 396.703 1074.15 396.023 1071.39 395.457 L 1071.59 394.477 L 1071.65 395.477 C 1067.83 395.684 1064.56 396.547 1061.8 398.043 L 1061.81 398.043 C 1059.05 399.547 1056.99 401.496 1055.56 403.93 C 1054.13 406.367 1053.42 409.051 1053.42 412.043 L 1052.42 412.043 L 1052.9 411.164 C 1057.69 413.789 1062.23 415.07 1066.54 415.07 C 1068.06 415.07 1069.44 414.934 1070.69 414.66 C 1071.9 414.398 1074 413.711 1076.87 412.609 L 1077.68 412.301 L 1080.03 416.551 L 1080.43 417.258 L 1079.82 417.789 C 1076.71 420.508 1073.95 422.523 1071.54 423.852 L 1071.53 423.852 C 1069.08 425.195 1066.46 425.879 1063.75 425.879 C 1060.57 425.883 1057.52 424.719 1054.7 422.496 L 1054.67 422.48 L 1054.69 422.492 C 1051.89 420.281 1049.6 417.379 1047.84 413.828 C 1046.09 410.285 1045.19 406.855 1045.19 403.555 C 1045.19 401.105 1045.9 398.766 1047.31 396.617 C 1048.68 394.512 1050.31 392.832 1052.19 391.602 L 1052.73 392.438 L 1052.69 393.434 C 1048.31 393.223 1043.75 393.113 1039.04 393.113 L 1038.63 393.113 L 1037.42 391.91 L 1037.12 391.617 L 1037.12 384.648 L 1037.12 384.234 L 1038.34 383.027 L 1038.63 382.734 L 1039.04 382.734 L 1039.04 383.734" style="fill-opacity: 1; fill-rule: nonzero; stroke: none;" id="path298"/>
        <path d="M 1173.37 377.773 L 1170.58 395.551 C 1167.47 414.172 1165.42 427.145 1164.43 434.469 C 1163.45 441.785 1162.96 446.609 1162.96 448.941 C 1162.96 451.41 1163.53 453.324 1164.68 454.688 C 1165.82 456.051 1167.65 456.996 1170.15 457.535 L 1170.48 456.246 C 1170.58 455.852 1171.78 451.93 1174.07 444.48 L 1171.49 442.227 L 1171.71 440.508 L 1175.3 407.906 C 1175.95 403.145 1176.44 398.578 1176.76 394.211 L 1176.81 393.992 C 1179.17 392.738 1181.87 392.113 1184.87 392.113 L 1185.78 391.199 L 1185.78 384.648 L 1184.87 383.734 C 1182.22 383.734 1179.72 384.324 1177.35 385.508 L 1177.45 381.91 C 1177.45 377.363 1176.04 373.027 1173.21 368.91 C 1170.38 364.797 1166.49 361.438 1161.55 358.844 C 1156.61 356.246 1151.51 354.945 1146.25 354.945 C 1139.98 354.945 1135.1 356.742 1131.59 360.348 C 1128.08 363.941 1126.32 369.039 1126.32 375.625 C 1126.32 377.738 1126.46 379.73 1126.73 381.617 C 1126.99 383.492 1127.58 386.238 1128.47 389.859 L 1132.5 388.891 C 1131.68 385.668 1131.26 383.059 1131.26 381.051 C 1131.26 375.68 1132.61 371.5 1135.29 368.512 C 1137.98 365.52 1141.72 364.023 1146.51 364.023 C 1149.99 364.023 1153.6 364.633 1157.37 365.852 C 1161.12 367.066 1164.44 368.73 1167.3 370.844 C 1170.17 372.961 1172.2 375.27 1173.37 377.773" style="fill-opacity: 1; fill-rule: nonzero; stroke: none;" id="path300"/>
        <path d="M 1173.37 377.773 L 1174.36 377.93 L 1171.56 395.707 L 1171.56 395.715 C 1168.46 414.328 1166.41 427.301 1165.42 434.602 C 1164.44 441.898 1163.96 446.73 1163.96 448.941 C 1163.96 451.27 1164.49 452.918 1165.44 454.043 L 1165.44 454.047 C 1166.39 455.176 1167.99 456.047 1170.36 456.555 L 1170.15 457.535 L 1169.18 457.285 L 1169.51 455.996 L 1170.48 456.246 L 1169.51 456.004 C 1169.63 455.512 1170.82 451.656 1173.12 444.188 L 1174.07 444.48 L 1173.41 445.234 L 1170.84 442.98 L 1170.44 442.629 L 1170.72 440.391 L 1174.31 407.785 L 1174.31 407.77 C 1174.95 403.027 1175.44 398.484 1175.76 394.137 L 1175.77 394.059 L 1175.83 393.773 L 1175.93 393.324 L 1176.34 393.109 C 1178.86 391.77 1181.73 391.113 1184.87 391.113 L 1184.87 392.113 L 1184.16 391.41 L 1184.78 390.789 L 1184.78 385.063 L 1184.16 384.441 L 1184.87 383.734 L 1184.87 384.734 C 1182.37 384.738 1180.03 385.289 1177.8 386.402 L 1176.31 387.148 L 1176.45 381.883 L 1177.45 381.91 L 1176.45 381.91 C 1176.45 377.57 1175.12 373.453 1172.39 369.477 C 1169.65 365.508 1165.91 362.258 1161.09 359.727 C 1156.27 357.199 1151.35 355.949 1146.25 355.945 C 1140.16 355.953 1135.6 357.668 1132.31 361.043 L 1132.31 361.047 C 1129.02 364.414 1127.32 369.207 1127.32 375.625 C 1127.32 377.695 1127.45 379.641 1127.72 381.473 L 1127.72 381.496 L 1127.72 381.477 C 1127.97 383.285 1128.55 386.02 1129.44 389.621 L 1128.47 389.859 L 1128.23 388.887 L 1132.27 387.918 L 1132.5 388.891 L 1131.53 389.137 C 1130.7 385.867 1130.26 383.195 1130.26 381.051 C 1130.26 375.52 1131.66 371.059 1134.55 367.844 C 1137.43 364.613 1141.52 363.012 1146.51 363.023 C 1150.11 363.023 1153.83 363.656 1157.68 364.898 C 1161.52 366.145 1164.94 367.855 1167.9 370.039 C 1170.86 372.227 1173.01 374.652 1174.27 377.352 L 1174.4 377.629 L 1174.36 377.93 L 1173.37 377.773 L 1172.46 378.195 C 1171.38 375.883 1169.48 373.691 1166.71 371.648 C 1163.94 369.605 1160.72 367.988 1157.06 366.801 C 1153.38 365.613 1149.87 365.023 1146.51 365.023 C 1141.92 365.035 1138.52 366.422 1136.04 369.18 C 1133.56 371.938 1132.26 375.836 1132.26 381.051 C 1132.26 382.918 1132.66 385.469 1133.47 388.645 L 1133.72 389.629 L 1128.7 390.832 L 1127.73 391.063 L 1127.5 390.098 C 1126.6 386.461 1126.01 383.695 1125.74 381.754 L 1125.74 381.762 C 1125.46 379.824 1125.32 377.781 1125.32 375.625 C 1125.31 368.871 1127.14 363.469 1130.88 359.648 C 1134.59 355.82 1139.8 353.938 1146.25 353.945 C 1151.68 353.945 1156.95 355.293 1162.02 357.957 C 1167.08 360.613 1171.11 364.086 1174.04 368.344 C 1176.97 372.602 1178.45 377.156 1178.45 381.91 L 1178.45 381.922 L 1178.35 385.535 L 1177.35 385.508 L 1176.91 384.613 C 1179.4 383.363 1182.07 382.734 1184.87 382.734 L 1185.29 382.734 L 1186.49 383.941 L 1186.78 384.234 L 1186.78 391.199 L 1186.78 391.613 L 1185.58 392.82 L 1185.29 393.113 L 1184.87 393.113 C 1182 393.113 1179.48 393.707 1177.28 394.879 L 1176.81 393.992 L 1177.78 394.215 L 1177.73 394.43 L 1176.76 394.211 L 1177.76 394.281 C 1177.43 398.676 1176.94 403.262 1176.29 408.039 L 1175.3 407.906 L 1176.3 408.016 L 1172.7 440.625 L 1172.55 441.824 L 1174.73 443.73 L 1175.22 444.156 L 1175.03 444.777 C 1172.74 452.199 1171.52 456.191 1171.45 456.484 L 1171.45 456.496 L 1171.11 457.785 L 1170.88 458.715 L 1169.94 458.512 C 1167.31 457.945 1165.25 456.926 1163.91 455.328 L 1163.91 455.332 C 1162.56 453.73 1161.96 451.555 1161.96 448.941 C 1161.96 446.492 1162.45 441.676 1163.44 434.336 C 1164.43 426.984 1166.48 414.012 1169.59 395.387 L 1169.59 395.398 L 1172.38 377.617 L 1173.37 377.773 L 1172.46 378.195 L 1173.37 377.773" style="fill-opacity: 1; fill-rule: nonzero; stroke: none;" id="path302"/>
        <path d="M 1230.09 392.113 C 1239.65 392.113 1249.44 395.25 1259.46 401.516 C 1257.25 405.383 1254.58 408.398 1251.46 410.563 C 1248.35 412.73 1245.27 413.813 1242.23 413.813 C 1238.75 413.813 1234.62 412.125 1229.81 408.734 C 1225.02 405.355 1219.81 400.352 1214.19 393.727 C 1219.92 392.652 1225.21 392.113 1230.09 392.113 L 1230.09 392.113 Z M 1271.88 383.734 C 1268.76 383.734 1265.66 384.359 1262.59 385.613 C 1259.5 386.871 1256.98 388.516 1255.01 390.559 C 1251.75 388.441 1247.76 386.777 1243.06 385.563 C 1238.35 384.348 1233.65 383.734 1228.96 383.734 C 1223.66 383.734 1218.21 384.309 1212.63 385.453 C 1207.04 386.602 1202.61 388.086 1199.31 389.91 L 1197.43 387.766 C 1195 385.078 1190.99 383.734 1185.4 383.734 L 1184.48 384.648 L 1184.48 391.199 L 1185.4 392.113 C 1188.69 392.113 1191.31 392.715 1193.24 393.91 C 1195.18 395.113 1197.13 397.434 1199.09 400.867 L 1200.81 403.93 C 1201.57 405.219 1202.73 405.863 1204.31 405.863 C 1205.34 405.863 1206.2 405.523 1206.88 404.844 C 1205.34 401.117 1204.25 398.578 1203.6 397.219 C 1205.4 396.355 1207.23 395.641 1209.09 395.066 C 1223.13 413.688 1235.09 422.996 1244.97 422.996 C 1247.04 422.996 1249.6 422.156 1252.65 420.473 C 1255.69 418.789 1258.41 416.625 1260.81 413.977 C 1263.21 411.324 1264.4 409 1264.4 406.992 C 1264.4 402.555 1263 398.594 1260.17 395.121 C 1263.5 393.113 1267.4 392.113 1271.88 392.113 L 1272.84 391.199 L 1272.84 384.648 L 1271.88 383.734" style="fill-opacity: 1; fill-rule: nonzero; stroke: none;" id="path304"/>
        <path d="M 1230.09 392.113 L 1230.09 391.113 C 1239.87 391.113 1249.86 394.324 1259.99 400.668 L 1260.81 401.176 L 1260.33 402.012 C 1258.05 405.984 1255.29 409.121 1252.04 411.383 C 1248.8 413.637 1245.52 414.816 1242.23 414.813 C 1238.42 414.805 1234.13 413 1229.24 409.555 C 1224.34 406.102 1219.09 401.039 1213.43 394.371 L 1212.31 393.059 L 1214.01 392.742 C 1219.79 391.66 1225.14 391.113 1230.09 391.113 L 1230.09 392.113 L 1230.09 393.113 C 1225.29 393.113 1220.06 393.645 1214.37 394.707 L 1214.19 393.727 L 1214.95 393.078 C 1220.54 399.66 1225.7 404.609 1230.39 407.918 C 1235.1 411.25 1239.08 412.824 1242.23 412.813 C 1245.03 412.813 1247.9 411.82 1250.89 409.742 C 1253.87 407.676 1256.44 404.777 1258.6 401.016 L 1259.46 401.516 L 1258.93 402.363 C 1249.03 396.172 1239.43 393.113 1230.09 393.113 L 1230.09 392.113 Z M 1271.88 383.734 L 1271.88 384.734 C 1268.89 384.734 1265.93 385.332 1262.97 386.543 C 1259.98 387.754 1257.59 389.324 1255.73 391.254 L 1255.16 391.844 L 1254.47 391.395 C 1251.32 389.352 1247.43 387.723 1242.81 386.531 C 1238.18 385.336 1233.57 384.734 1228.96 384.734 C 1223.73 384.734 1218.35 385.301 1212.83 386.434 C 1207.31 387.566 1202.96 389.031 1199.79 390.785 L 1199.08 391.18 L 1196.68 388.422 L 1197.43 387.766 L 1196.69 388.434 C 1194.54 386.047 1190.84 384.738 1185.4 384.734 L 1185.4 383.734 L 1186.11 384.445 L 1185.48 385.063 L 1185.48 390.785 L 1186.11 391.406 L 1185.4 392.113 L 1185.4 391.113 C 1188.81 391.117 1191.61 391.73 1193.77 393.063 C 1195.93 394.414 1197.95 396.859 1199.96 400.371 L 1199.97 400.387 L 1201.68 403.441 L 1200.81 403.93 L 1201.67 403.422 C 1202.3 404.43 1203.01 404.836 1204.31 404.863 L 1206.18 404.133 L 1206.88 404.844 L 1205.96 405.227 C 1204.42 401.508 1203.33 398.973 1202.7 397.645 L 1202.27 396.742 L 1203.17 396.316 C 1205.01 395.434 1206.88 394.699 1208.8 394.113 L 1209.47 393.906 L 1209.89 394.465 C 1223.84 413.031 1235.75 422.066 1244.97 421.996 C 1246.77 422.004 1249.2 421.242 1252.16 419.598 C 1255.11 417.969 1257.74 415.879 1260.07 413.305 C 1262.4 410.742 1263.42 408.586 1263.4 406.992 C 1263.4 402.766 1262.09 399.066 1259.39 395.754 L 1258.66 394.859 L 1259.65 394.266 C 1263.15 392.152 1267.26 391.113 1271.88 391.113 L 1271.88 392.113 L 1271.19 391.387 L 1271.84 390.77 L 1271.84 385.078 L 1271.19 384.461 L 1271.88 383.734 L 1271.88 384.734 L 1271.88 383.734 L 1272.56 383.008 L 1273.53 383.922 L 1273.84 384.219 L 1273.84 391.199 L 1273.84 391.633 L 1272.56 392.84 L 1272.27 393.113 L 1271.88 393.113 C 1267.55 393.117 1263.84 394.078 1260.68 395.98 L 1260.17 395.121 L 1260.94 394.488 C 1263.91 398.121 1265.41 402.344 1265.4 406.992 C 1265.39 409.41 1264.03 411.902 1261.55 414.645 C 1259.08 417.375 1256.27 419.609 1253.13 421.348 C 1250 423.074 1247.31 423.992 1244.97 423.996 C 1234.43 423.93 1222.41 414.344 1208.29 395.672 L 1209.09 395.066 L 1209.38 396.023 C 1207.57 396.582 1205.79 397.281 1204.03 398.117 L 1203.6 397.219 L 1204.51 396.789 C 1205.17 398.188 1206.26 400.727 1207.81 404.461 L 1208.07 405.082 L 1207.59 405.555 C 1206.73 406.418 1205.56 406.875 1204.31 406.863 C 1202.46 406.895 1200.84 406.008 1199.95 404.438 L 1199.94 404.43 L 1198.22 401.359 L 1198.22 401.363 C 1196.31 398.004 1194.42 395.809 1192.71 394.762 L 1192.72 394.762 C 1191 393.699 1188.57 393.113 1185.4 393.113 L 1184.99 393.113 L 1183.78 391.91 L 1183.48 391.617 L 1183.48 384.648 L 1183.48 384.234 L 1184.7 383.027 L 1184.99 382.734 L 1185.4 382.734 C 1191.13 382.734 1195.46 384.109 1198.17 387.094 L 1198.18 387.098 L 1200.06 389.254 L 1199.31 389.91 L 1198.82 389.035 C 1202.25 387.141 1206.78 385.637 1212.43 384.477 C 1218.07 383.313 1223.59 382.734 1228.96 382.734 C 1233.74 382.734 1238.52 383.355 1243.31 384.594 C 1248.09 385.828 1252.18 387.531 1255.55 389.719 L 1255.01 390.559 L 1254.29 389.863 C 1256.37 387.707 1259.02 385.984 1262.21 384.688 C 1265.4 383.391 1268.63 382.734 1271.88 382.734 L 1272.27 382.734 L 1272.56 383.008 L 1271.88 383.734" style="fill-opacity: 1; fill-rule: nonzero; stroke: none;" id="path306"/>
        <path d="M 1272.43 383.734 L 1271.51 384.648 L 1271.51 391.199 L 1272.43 392.113 C 1283.21 392.113 1291.68 393.047 1297.84 394.906 L 1303.96 397.004 C 1308.12 398.578 1311.81 399.652 1315.03 400.227 C 1312.16 401.656 1309.33 403.48 1306.53 405.703 C 1303.56 408.031 1301.16 409.652 1299.32 410.563 C 1297.47 411.48 1295.58 411.934 1293.64 411.934 C 1290.14 411.934 1286.98 411.039 1284.19 409.246 L 1281.61 407.637 C 1280.54 408.711 1280.01 410.141 1280.01 411.934 C 1280.01 414.691 1281.22 416.91 1283.66 418.594 C 1286.09 420.277 1289.3 421.117 1293.27 421.117 C 1295.6 421.117 1297.95 420.613 1300.33 419.613 C 1302.71 418.613 1305.48 416.965 1308.63 414.672 C 1312.46 411.848 1315.72 409.723 1318.41 408.305 C 1321.09 406.895 1323.82 405.883 1326.57 405.273 C 1329.33 404.664 1333.34 404.359 1338.6 404.359 L 1334.41 396.25 C 1332.12 396.539 1330.07 396.734 1328.23 396.84 L 1327.86 396.895 L 1325.61 396.84 C 1323.07 396.84 1320.63 396.465 1318.33 395.715 C 1316.02 394.961 1312.43 393.328 1307.56 390.824 C 1302.08 387.996 1297.13 386.109 1292.71 385.16 C 1288.28 384.211 1281.52 383.734 1272.43 383.734" style="fill-opacity: 1; fill-rule: nonzero; stroke: none;" id="path308"/>
        <path d="M 1272.43 383.734 L 1273.14 384.445 L 1272.51 385.063 L 1272.51 390.785 L 1273.14 391.406 L 1272.43 392.113 L 1272.43 391.113 C 1283.27 391.117 1291.82 392.047 1298.13 393.949 L 1298.15 393.953 L 1304.28 396.055 L 1304.3 396.063 L 1304.31 396.066 C 1308.43 397.629 1312.06 398.684 1315.2 399.238 L 1318.19 399.77 L 1315.48 401.121 C 1312.67 402.516 1309.9 404.305 1307.16 406.484 L 1307.15 406.488 C 1304.15 408.844 1301.71 410.492 1299.76 411.461 L 1299.76 411.457 C 1297.79 412.438 1295.73 412.934 1293.64 412.934 C 1289.97 412.938 1286.6 411.988 1283.65 410.09 L 1284.19 409.246 L 1283.66 410.098 L 1281.08 408.484 L 1281.61 407.637 L 1282.32 408.344 C 1281.45 409.219 1281.02 410.328 1281.01 411.934 C 1281.03 414.391 1282.01 416.211 1284.23 417.77 L 1284.23 417.773 C 1286.45 419.309 1289.43 420.117 1293.27 420.117 C 1295.45 420.117 1297.67 419.648 1299.94 418.691 C 1302.22 417.738 1304.93 416.125 1308.05 413.863 L 1308.04 413.867 C 1311.89 411.023 1315.19 408.875 1317.94 407.422 C 1320.7 405.973 1323.51 404.93 1326.36 404.297 C 1329.24 403.66 1333.3 403.363 1338.6 403.359 L 1338.6 404.359 L 1337.71 404.82 L 1333.53 396.711 L 1334.41 396.25 L 1334.54 397.242 C 1332.23 397.531 1330.15 397.73 1328.29 397.84 L 1328.23 396.84 L 1328.38 397.832 L 1328 397.883 L 1327.92 397.895 L 1325.58 397.84 L 1325.61 396.84 L 1325.61 397.84 C 1322.97 397.84 1320.43 397.449 1318.02 396.664 C 1315.6 395.875 1312 394.23 1307.1 391.715 C 1301.68 388.918 1296.8 387.063 1292.5 386.141 C 1288.2 385.215 1281.49 384.734 1272.43 384.734 L 1272.43 383.734 L 1273.14 384.445 L 1272.43 383.734 L 1272.43 382.734 C 1281.56 382.738 1288.36 383.203 1292.92 384.184 C 1297.45 385.156 1302.48 387.082 1308.02 389.938 C 1312.86 392.43 1316.43 394.047 1318.64 394.762 C 1320.84 395.48 1323.16 395.84 1325.61 395.84 L 1325.62 395.84 L 1327.8 395.895 L 1328.09 395.852 L 1328.13 395.844 L 1328.17 395.844 C 1329.98 395.738 1332.01 395.543 1334.29 395.258 L 1334.98 395.172 L 1339.49 403.902 L 1340.25 405.359 L 1338.6 405.359 C 1333.38 405.359 1329.41 405.668 1326.79 406.25 C 1324.13 406.84 1321.49 407.816 1318.87 409.191 C 1316.26 410.57 1313.03 412.668 1309.23 415.477 L 1309.22 415.48 C 1306.03 417.801 1303.21 419.488 1300.72 420.535 C 1298.23 421.582 1295.74 422.117 1293.27 422.117 C 1289.16 422.117 1285.74 421.25 1283.09 419.418 C 1280.43 417.609 1278.99 414.992 1279.01 411.934 C 1279 409.953 1279.62 408.203 1280.9 406.93 L 1281.47 406.367 L 1284.72 408.398 L 1284.73 408.41 L 1284.73 408.406 C 1287.36 410.094 1290.31 410.93 1293.64 410.934 C 1295.42 410.934 1297.15 410.52 1298.87 409.668 L 1298.87 409.664 C 1300.61 408.813 1302.98 407.223 1305.92 404.918 L 1305.91 404.922 C 1308.75 402.66 1311.64 400.797 1314.58 399.328 L 1315.03 400.227 L 1314.85 401.211 C 1311.55 400.621 1307.8 399.531 1303.6 397.938 L 1303.96 397.004 L 1303.63 397.949 L 1297.52 395.852 L 1297.84 394.906 L 1297.55 395.863 C 1291.54 394.047 1283.15 393.113 1272.43 393.113 L 1272.02 393.113 L 1270.81 391.91 L 1270.51 391.617 L 1270.51 384.648 L 1270.51 384.234 L 1271.73 383.027 L 1272.02 382.734 L 1272.43 382.734 L 1272.43 383.734" style="fill-rule: nonzero; stroke: rgb(0, 0, 0); paint-order: markers stroke;" id="path310"/>
        <path d="M 1352.54 420.367 L 1352.54 413.492 C 1352.54 406.402 1352.29 396.785 1351.79 384.648 L 1346.74 383.734 C 1346.27 409.441 1345.27 430.785 1343.73 447.758 L 1343.68 449.156 C 1343.68 451.484 1344.26 453.336 1345.42 454.711 C 1346.58 456.094 1348.42 457.031 1350.93 457.535 L 1351.25 456.246 C 1351.36 455.852 1352.56 451.93 1354.85 444.48 L 1351.89 441.957 L 1351.94 441.422 C 1352.34 433.547 1352.54 426.523 1352.54 420.367" style="fill-opacity: 1; fill-rule: nonzero; stroke: none;" id="path312"/>
        <path d="M 1352.54 420.367 L 1351.54 420.367 L 1351.54 413.492 C 1351.54 406.426 1351.29 396.82 1350.79 384.688 L 1351.79 384.648 L 1351.61 385.633 L 1346.56 384.719 L 1346.74 383.734 L 1347.74 383.754 C 1347.27 409.477 1346.27 430.84 1344.73 447.848 L 1343.73 447.758 L 1344.73 447.793 L 1344.68 449.191 L 1343.68 449.156 L 1344.68 449.156 C 1344.69 451.328 1345.21 452.91 1346.18 454.066 L 1346.19 454.066 C 1347.15 455.219 1348.75 456.078 1351.12 456.555 L 1350.93 457.535 L 1349.96 457.293 L 1350.28 456.004 L 1350.28 455.992 L 1350.28 455.984 C 1350.41 455.527 1351.6 451.648 1353.9 444.188 L 1354.85 444.48 L 1354.2 445.242 L 1351.25 442.719 L 1350.85 442.383 L 1350.95 441.328 L 1351.94 441.422 L 1350.94 441.371 C 1351.34 433.508 1351.54 426.504 1351.54 420.367 L 1352.54 420.367 L 1353.54 420.367 C 1353.54 426.547 1353.34 433.582 1352.94 441.473 L 1352.94 441.492 L 1352.94 441.531 L 1355.5 443.723 L 1356 444.148 L 1355.81 444.777 C 1353.52 452.211 1352.31 456.172 1352.21 456.508 L 1351.25 456.246 L 1352.22 456.488 L 1351.9 457.777 L 1351.67 458.703 L 1350.73 458.516 C 1348.09 457.984 1346.02 456.973 1344.65 455.355 L 1344.66 455.355 C 1343.31 453.762 1342.68 451.641 1342.68 449.156 L 1342.68 449.141 L 1342.73 447.723 L 1342.73 447.695 L 1342.73 447.668 C 1344.27 430.73 1345.27 409.41 1345.74 383.719 L 1345.76 382.543 L 1351.97 383.664 L 1352.75 383.809 L 1352.79 384.605 C 1353.28 396.754 1353.54 406.379 1353.54 413.492 L 1353.54 420.367 L 1352.54 420.367" style="fill-opacity: 1; fill-rule: nonzero; stroke: none;" id="path314"/>
      </g>
    </g>
  </g>
</svg>