<svg xmlns="http://www.w3.org/2000/svg" xmlns:xlink="http://www.w3.org/1999/xlink" width="122.018" height="40.071" viewBox="0 0 122.018 40.071">
  <defs>
    <clipPath id="clip-path">
      <rect id="Rectangle_2" data-name="Rectangle 2" width="122.019" height="40.071" fill="none"/>
    </clipPath>
  </defs>
  <g id="Group_1" data-name="Group 1" clip-path="url(#clip-path)">
    <path id="Path_1" data-name="Path 1" d="M22.564,6.049,6.258,24.9v8.359a3.022,3.022,0,0,1-3.127,2.9A3.022,3.022,0,0,1,0,33.254V3.886A3.021,3.021,0,0,1,3.131.985a3.02,3.02,0,0,1,3.127,2.9V15.343L17.872,1.917a3.031,3.031,0,0,1,4.269-.106,3.01,3.01,0,0,1,.424,4.237m-.043,24.985c1.041,1.926.886,3.794-.572,4.611A3.34,3.34,0,0,1,17.2,33.868l-4.86-10.859a3.429,3.429,0,0,1,.4-4.44,3.081,3.081,0,0,1,4.516.7Z" transform="translate(0 -0.712)" fill="#231f20"/>
    <path id="Path_2" data-name="Path 2" d="M114.668,36.67a3.02,3.02,0,0,1-3.742-2.051l-5.619-19.4-5.618,19.4a3.021,3.021,0,0,1-3.74,2.051,3.231,3.231,0,0,1-2.2-3.86l8.483-28.818a3.274,3.274,0,0,1,6.148,0l8.483,28.818a2.986,2.986,0,0,1-2.2,3.86" transform="translate(-67.595 -1.329)" fill="#231f20"/>
    <path id="Path_3" data-name="Path 3" d="M190.617,17.536a1.922,1.922,0,0,1,.222.741V33.75a3.183,3.183,0,0,1-6.258,0l-.051-14.628L176.579,5.834a3.013,3.013,0,0,1,1.051-4.128,3.252,3.252,0,0,1,4.333,1.033L190.4,17.111a2.041,2.041,0,0,1,.216.425m8.191-11.524-4.4,7.089a3.125,3.125,0,0,1-5.332-3.262l4.4-7.092a3.126,3.126,0,0,1,5.332,3.265" transform="translate(-127.123 -0.909)" fill="#0f69b0"/>
    <path id="Path_4" data-name="Path 4" d="M280.184,36.67a3.021,3.021,0,0,1-3.742-2.051l-5.615-19.4-5.618,19.4a3.024,3.024,0,0,1-3.743,2.051,3.234,3.234,0,0,1-2.2-3.86l8.483-28.818a3.274,3.274,0,0,1,6.148,0l8.483,28.818a2.984,2.984,0,0,1-2.2,3.86" transform="translate(-187.049 -1.329)" fill="#231f20"/>
    <path id="Path_5" data-name="Path 5" d="M376.918,17.31v15.1a2.845,2.845,0,0,1-.265,1.188,2.262,2.262,0,0,1-.216.389,3.18,3.18,0,0,1-2.519,1.449.113.113,0,0,0-.033,0l-.094,0h-.022a2.9,2.9,0,0,1-2.749-1.574L359.448,14.481v17.93a3.138,3.138,0,0,1-6.257,0V3.04a2.733,2.733,0,0,1,.4-1.415,2.859,2.859,0,0,1,1.3-1.288,3.064,3.064,0,0,1,3.913.939,2.843,2.843,0,0,1,.466.8L370.66,21.361V17.31a3.138,3.138,0,0,1,6.258,0" transform="translate(-254.899 0)" fill="#231f20"/>
    <path id="Path_6" data-name="Path 6" d="M209.81,1.872a3.191,3.191,0,1,1-3.584,2.755,3.191,3.191,0,0,1,3.584-2.755" transform="translate(-148.815 -1.333)" fill="#0f69b0"/>
  </g>
</svg>
