<svg width="15" height="15" viewBox="0 0 15 15" fill="none" xmlns="http://www.w3.org/2000/svg">
<path d="M14.7281 11.0475L12.705 9.02347C12.532 8.85003 12.293 8.74269 12.0291 8.74269C11.7652 8.74269 11.5261 8.85003 11.3531 9.02347L10.2169 10.1616C8.13094 8.63159 6.34781 6.84847 4.86656 4.83003L4.81875 4.76159L5.95781 3.6244C6.13078 3.4519 6.23766 3.21284 6.23766 2.9494C6.23766 2.68597 6.13078 2.4469 5.95781 2.2744L3.93375 0.250342C3.76125 0.0778418 3.52313 -0.0285645 3.26016 -0.0285645C2.99719 -0.0285645 2.75906 0.0783105 2.58656 0.250342L0.561563 2.2744C0.211876 2.59831 -0.00609398 3.05956 -0.00609398 3.57144C-0.00609398 3.76362 0.0243759 3.94831 0.0810947 4.12128L0.0773449 4.10862C2.47359 8.7905 6.18938 12.5077 10.7325 14.8416L10.8698 14.9058C11.0367 14.9658 11.2289 15.0005 11.4295 15.0005C11.9367 15.0005 12.3919 14.7783 12.7031 14.4253L12.7045 14.4235L14.7277 12.3975C14.9011 12.225 15.0084 11.986 15.0084 11.7221C15.0084 11.4582 14.9011 11.2191 14.7281 11.0466V11.0475Z" fill="#7090AB"/>
</svg>
