<svg xmlns="http://www.w3.org/2000/svg" width="29.022" height="19.356" viewBox="0 0 29.022 19.356">
  <path id="Icon_ionic-ios-arrow-round-forward" data-name="Icon ionic-ios-arrow-round-forward" d="M26.383,11.622a1.317,1.317,0,0,0-.01,1.855L32.5,19.616H9.175a1.311,1.311,0,0,0,0,2.621H32.492l-6.129,6.139a1.327,1.327,0,0,0,.01,1.855,1.305,1.305,0,0,0,1.845-.01l8.306-8.367h0a1.472,1.472,0,0,0,.272-.413,1.251,1.251,0,0,0,.1-.5,1.314,1.314,0,0,0-.373-.917l-8.306-8.367A1.284,1.284,0,0,0,26.383,11.622Z" transform="translate(36.897 30.608) rotate(-180)" fill="#0f69b0"/>
</svg>
